SourceSans3-Black.ufo
<glyph name="k" format="2">
	<unicode hex="006B"/>
	<advance width="568"/>
	<outline>
		<contour>
			<point x="58" y="0" type="line"/>
			<point x="228" y="0" type="line"/>
			<point x="228" y="122" type="line"/>
			<point x="278" y="178" type="line"/>
			<point x="378" y="0" type="line"/>
			<point x="564" y="0" type="line"/>
			<point x="378" y="290" type="line"/>
			<point x="554" y="500" type="line"/>
			<point x="366" y="500" type="line"/>
			<point x="232" y="328" type="line"/>
			<point x="228" y="328" type="line"/>
			<point x="228" y="696" type="line"/>
			<point x="58" y="696" type="line"/>
		</contour>
	</outline>
	<anchor name="aboverightLC" x="480" y="522"/>
	<anchor name="aboveUC" x="320" y="722"/>
	<anchor name="belowLC" x="300" y="-22"/>
</glyph>
<glyph name="l" format="2">
	<unicode hex="006C"/>
	<advance width="298"/>
	<outline>
		<contour>
			<point x="212" y="-12" type="curve" smooth="yes"/>
			<point x="250" y="-12"/>
			<point x="278" y="-6"/>
			<point x="296" y="2" type="curve"/>
			<point x="276" y="128" type="line"/>
			<point x="268" y="126"/>
			<point x="264" y="126"/>
			<point x="258" y="126" type="curve" smooth="yes"/>
			<point x="246" y="126"/>
			<point x="230" y="136"/>
			<point x="230" y="170" type="curve" smooth="yes"/>
			<point x="230" y="696" type="line"/>
			<point x="58" y="696" type="line"/>
			<point x="58" y="176" type="line" smooth="yes"/>
			<point x="58" y="64"/>
			<point x="96" y="-12"/>
		</contour>
	</outline>
	<anchor name="aboveUC" x="150" y="722"/>
	<anchor name="belowLC" x="170" y="-22"/>
	<anchor name="center" x="150" y="360"/>
	<guideline x="298" y="360" angle="0" identifier="mJ8JiYQU46"/>
</glyph>
<glyph name="Oslash" format="2">
	<unicode hex="00D8"/>
	<advance width="692"/>
	<outline>
		<contour>
			<point x="124" y="-46" type="line"/>
			<point x="676" y="628" type="line"/>
			<point x="588" y="696" type="line"/>
			<point x="36" y="22" type="line"/>
		</contour>
		<component base="O"/>
	</outline>
	<anchor name="aboveUC" x="346" y="672"/>
	<anchor name="belowLC" x="346" y="-22"/>
	<guideline x="346" y="604" angle="90" identifier="Pdk6KSyd9N"/>
</glyph>
<glyph name="ae" format="2">
	<unicode hex="00E6"/>
	<advance width="782"/>
	<outline>
		<contour>
			<point x="188" y="-12" type="curve" smooth="yes"/>
			<point x="255" y="-12"/>
			<point x="304" y="5"/>
			<point x="376" y="60" type="curve"/>
			<point x="419" y="15"/>
			<point x="476" y="-12"/>
			<point x="546" y="-12" type="curve"/>
			<point x="602" y="-12"/>
			<point x="674" y="8"/>
			<point x="728" y="46" type="curve"/>
			<point x="674" y="148" type="line"/>
			<point x="638" y="128"/>
			<point x="604" y="118"/>
			<point x="570" y="118" type="curve" smooth="yes"/>
			<point x="518" y="118"/>
			<point x="476" y="144"/>
			<point x="464" y="200" type="curve"/>
			<point x="740" y="200" type="line"/>
			<point x="742" y="212"/>
			<point x="746" y="236"/>
			<point x="746" y="266" type="curve" smooth="yes"/>
			<point x="746" y="400"/>
			<point x="680" y="512"/>
			<point x="544" y="512" type="curve"/>
			<point x="488" y="512"/>
			<point x="446" y="490"/>
			<point x="402" y="448" type="curve"/>
			<point x="370" y="488"/>
			<point x="322" y="512"/>
			<point x="264" y="512" type="curve" smooth="yes"/>
			<point x="192" y="512"/>
			<point x="124" y="488"/>
			<point x="54" y="446" type="curve"/>
			<point x="114" y="336" type="line"/>
			<point x="166" y="364"/>
			<point x="204" y="376"/>
			<point x="240" y="376" type="curve" smooth="yes"/>
			<point x="285" y="376"/>
			<point x="304" y="359"/>
			<point x="308" y="324" type="curve"/>
			<point x="118" y="304"/>
			<point x="38" y="246"/>
			<point x="38" y="142" type="curve" smooth="yes"/>
			<point x="38" y="60"/>
			<point x="94" y="-12"/>
		</contour>
		<contour>
			<point x="248" y="120" type="curve" smooth="yes"/>
			<point x="218" y="120"/>
			<point x="202" y="133"/>
			<point x="202" y="156" type="curve" smooth="yes"/>
			<point x="202" y="185"/>
			<point x="231" y="210"/>
			<point x="306" y="222" type="curve"/>
			<point x="308" y="203" type="line" smooth="yes"/>
			<point x="310" y="186"/>
			<point x="314" y="168"/>
			<point x="320" y="150" type="curve"/>
			<point x="300" y="132"/>
			<point x="277" y="120"/>
		</contour>
		<contour>
			<point x="464" y="308" type="line"/>
			<point x="474" y="358"/>
			<point x="500" y="382"/>
			<point x="538" y="382" type="curve" smooth="yes"/>
			<point x="576" y="382"/>
			<point x="600" y="354"/>
			<point x="600" y="308" type="curve"/>
		</contour>
	</outline>
	<anchor name="aboveLC" x="406" y="522"/>
	<anchor name="belowLC" x="400" y="-22"/>
</glyph>
<glyph name="dcroat" format="2">
	<unicode hex="0111"/>
	<advance width="580"/>
	<outline>
		<contour>
			<point x="240" y="-12" type="curve" smooth="yes"/>
			<point x="286" y="-12"/>
			<point x="331" y="8"/>
			<point x="364" y="40" type="curve"/>
			<point x="368" y="40" type="line"/>
			<point x="378" y="0" type="line"/>
			<point x="522" y="0" type="line"/>
			<point x="522" y="696" type="line"/>
			<point x="350" y="696" type="line"/>
			<point x="350" y="484" type="line"/>
			<point x="356" y="412" type="line"/>
			<point x="326" y="442"/>
			<point x="294" y="462"/>
			<point x="240" y="462" type="curve" smooth="yes"/>
			<point x="138" y="462"/>
			<point x="36" y="368"/>
			<point x="36" y="226" type="curve" smooth="yes"/>
			<point x="36" y="84"/>
			<point x="116" y="-12"/>
		</contour>
		<contour>
			<point x="286" y="128" type="curve" smooth="yes"/>
			<point x="240" y="128"/>
			<point x="212" y="160"/>
			<point x="212" y="228" type="curve" smooth="yes"/>
			<point x="212" y="294"/>
			<point x="246" y="322"/>
			<point x="282" y="322" type="curve" smooth="yes"/>
			<point x="304" y="322"/>
			<point x="329" y="315"/>
			<point x="350" y="296" type="curve"/>
			<point x="350" y="164" type="line"/>
			<point x="332" y="136"/>
			<point x="312" y="128"/>
		</contour>
		<contour>
			<point x="186" y="518" type="line"/>
			<point x="512" y="518" type="line"/>
			<point x="588" y="524" type="line"/>
			<point x="588" y="630" type="line"/>
			<point x="186" y="630" type="line"/>
		</contour>
	</outline>
	<anchor name="aboveUC" x="280" y="722"/>
	<anchor name="belowLC" x="280" y="-22"/>
</glyph>
<glyph name="OE" format="2">
	<unicode hex="0152"/>
	<advance width="880"/>
	<outline>
		<contour>
			<point x="374" y="0" type="curve" smooth="yes"/>
			<point x="826" y="0" type="line"/>
			<point x="826" y="144" type="line"/>
			<point x="580" y="144" type="line"/>
			<point x="580" y="260" type="line"/>
			<point x="780" y="260" type="line"/>
			<point x="780" y="404" type="line"/>
			<point x="580" y="404" type="line"/>
			<point x="580" y="506" type="line"/>
			<point x="816" y="506" type="line"/>
			<point x="816" y="650" type="line"/>
			<point x="384" y="650" type="line" smooth="yes"/>
			<point x="194" y="650"/>
			<point x="44" y="558"/>
			<point x="44" y="328" type="curve" smooth="yes"/>
			<point x="44" y="98"/>
			<point x="194" y="0"/>
		</contour>
		<contour>
			<point x="394" y="138" type="line" smooth="yes"/>
			<point x="297" y="138"/>
			<point x="220" y="174"/>
			<point x="220" y="328" type="curve" smooth="yes"/>
			<point x="220" y="482"/>
			<point x="297" y="512"/>
			<point x="394" y="512" type="curve" smooth="yes"/>
			<point x="408" y="512" type="line"/>
			<point x="408" y="138" type="line"/>
		</contour>
	</outline>
	<anchor name="aboveUC" x="528" y="672"/>
</glyph>
<glyph name="Tbar" format="2">
	<unicode hex="0166"/>
	<advance width="564"/>
	<outline>
		<contour>
			<point x="80" y="252" type="line"/>
			<point x="484" y="252" type="line"/>
			<point x="484" y="364" type="line"/>
			<point x="176" y="364" type="line"/>
			<point x="80" y="358" type="line"/>
		</contour>
		<component base="T"/>
	</outline>
	<anchor name="aboveUC" x="280" y="672"/>
	<anchor name="belowLC" x="280" y="-22"/>
</glyph>
<glyph name="Eopen" format="2">
	<unicode hex="0190"/>
	<advance width="538"/>
	<outline>
		<contour>
			<point x="300" y="-12" type="curve" smooth="yes"/>
			<point x="406" y="-12"/>
			<point x="468" y="18"/>
			<point x="532" y="76" type="curve"/>
			<point x="450" y="182" type="line"/>
			<point x="410" y="152"/>
			<point x="368" y="136"/>
			<point x="316" y="136" type="curve" smooth="yes"/>
			<point x="245" y="136"/>
			<point x="200" y="162"/>
			<point x="200" y="208" type="curve" smooth="yes"/>
			<point x="200" y="252"/>
			<point x="228" y="270"/>
			<point x="296" y="270" type="curve" smooth="yes"/>
			<point x="388" y="270" type="line"/>
			<point x="388" y="396" type="line"/>
			<point x="316" y="396" type="line" smooth="yes"/>
			<point x="254" y="396"/>
			<point x="232" y="419"/>
			<point x="232" y="455" type="curve" smooth="yes"/>
			<point x="232" y="498"/>
			<point x="262" y="514"/>
			<point x="308" y="514" type="curve" smooth="yes"/>
			<point x="358" y="514"/>
			<point x="396" y="502"/>
			<point x="438" y="474" type="curve"/>
			<point x="514" y="582" type="line"/>
			<point x="452" y="634"/>
			<point x="378" y="662"/>
			<point x="302" y="662" type="curve" smooth="yes"/>
			<point x="164" y="662"/>
			<point x="64" y="600"/>
			<point x="64" y="488" type="curve" smooth="yes"/>
			<point x="64" y="428"/>
			<point x="93" y="375"/>
			<point x="150" y="346" type="curve"/>
			<point x="150" y="342" type="line"/>
			<point x="82" y="322"/>
			<point x="32" y="268"/>
			<point x="32" y="194" type="curve" smooth="yes"/>
			<point x="32" y="62"/>
			<point x="138" y="-12"/>
		</contour>
	</outline>
	<anchor name="aboveUC" x="290" y="672"/>
	<anchor name="baseLC" x="290" y="0"/>
	<anchor name="belowLC" x="290" y="-22"/>
	<anchor name="ogonekUC" x="290" y="0"/>
</glyph>
<glyph name="lambdabar" format="2">
	<unicode hex="019B"/>
	<advance width="542"/>
	<outline>
		<contour>
			<point x="86" y="394" type="line"/>
			<point x="472" y="588" type="line"/>
			<point x="430" y="664" type="line"/>
			<point x="44" y="470" type="line"/>
		</contour>
		<component base="lambda.latin"/>
	</outline>
	<anchor name="aboverightUC" x="420" y="672"/>
	<anchor name="aboveUC" x="220" y="722"/>
	<anchor name="belowLC" x="270" y="-22"/>
</glyph>
<glyph name="Ezh" format="2">
	<unicode hex="01B7"/>
	<advance width="558"/>
	<outline>
		<contour>
			<point x="284" y="-12" type="curve" smooth="yes"/>
			<point x="413" y="-12"/>
			<point x="528" y="68"/>
			<point x="528" y="216" type="curve" smooth="yes"/>
			<point x="528" y="314"/>
			<point x="478" y="372"/>
			<point x="376" y="400" type="curve"/>
			<point x="510" y="538" type="line"/>
			<point x="510" y="650" type="line"/>
			<point x="58" y="650" type="line"/>
			<point x="58" y="506" type="line"/>
			<point x="294" y="506" type="line"/>
			<point x="148" y="364" type="line"/>
			<point x="202" y="274" type="line"/>
			<point x="230" y="282"/>
			<point x="242" y="284"/>
			<point x="276" y="284" type="curve" smooth="yes"/>
			<point x="317" y="284"/>
			<point x="360" y="262"/>
			<point x="360" y="212" type="curve" smooth="yes"/>
			<point x="360" y="160"/>
			<point x="324" y="136"/>
			<point x="262" y="136" type="curve" smooth="yes"/>
			<point x="214" y="136"/>
			<point x="158" y="154"/>
			<point x="112" y="194" type="curve"/>
			<point x="22" y="88" type="line"/>
			<point x="94" y="14"/>
			<point x="174" y="-12"/>
		</contour>
	</outline>
	<anchor name="aboveUC" x="280" y="672"/>
	<anchor name="belowLC" x="280" y="-22"/>
</glyph>
<glyph name="clickretroflex" format="2">
	<unicode hex="01C3"/>
	<advance width="248"/>
	<outline>
		<contour>
			<point x="68" y="244" type="line"/>
			<point x="180" y="244" type="line"/>
			<point x="206" y="522" type="line"/>
			<point x="212" y="696" type="line"/>
			<point x="36" y="696" type="line"/>
			<point x="42" y="522" type="line"/>
		</contour>
		<contour>
			<point x="124" y="-12" type="curve" smooth="yes"/>
			<point x="182" y="-12"/>
			<point x="224" y="34"/>
			<point x="224" y="92" type="curve" smooth="yes"/>
			<point x="224" y="150"/>
			<point x="182" y="196"/>
			<point x="124" y="196" type="curve" smooth="yes"/>
			<point x="66" y="196"/>
			<point x="24" y="150"/>
			<point x="24" y="92" type="curve" smooth="yes"/>
			<point x="24" y="34"/>
			<point x="66" y="-12"/>
		</contour>
	</outline>
	<anchor name="aboveUC" x="124" y="722"/>
	<anchor name="belowLC" x="124" y="-22"/>
</glyph>
<glyph name="yogh" format="2">
	<unicode hex="021D"/>
	<advance width="466"/>
	<outline>
		<contour>
			<point x="93" y="-188" type="line"/>
			<point x="330" y="-110"/>
			<point x="434" y="-36"/>
			<point x="434" y="106" type="curve" smooth="yes"/>
			<point x="434" y="194"/>
			<point x="376" y="234"/>
			<point x="308" y="242" type="curve"/>
			<point x="376" y="284"/>
			<point x="402" y="330"/>
			<point x="402" y="388" type="curve" smooth="yes"/>
			<point x="402" y="458"/>
			<point x="337" y="512"/>
			<point x="234" y="512" type="curve" smooth="yes"/>
			<point x="152" y="512"/>
			<point x="86" y="492"/>
			<point x="12" y="426" type="curve"/>
			<point x="84" y="334" type="line"/>
			<point x="128" y="366"/>
			<point x="158" y="382"/>
			<point x="190" y="382" type="curve" smooth="yes"/>
			<point x="218" y="382"/>
			<point x="238" y="366"/>
			<point x="238" y="338" type="curve" smooth="yes"/>
			<point x="238" y="302"/>
			<point x="220" y="268"/>
			<point x="84" y="200" type="curve"/>
			<point x="134" y="108" type="line"/>
			<point x="174" y="128"/>
			<point x="194" y="136"/>
			<point x="218" y="136" type="curve" smooth="yes"/>
			<point x="250" y="136"/>
			<point x="270" y="118"/>
			<point x="270" y="88" type="curve" smooth="yes"/>
			<point x="270" y="38"/>
			<point x="214" y="-14"/>
			<point x="42" y="-76" type="curve"/>
		</contour>
	</outline>
	<anchor name="aboveLC" x="230" y="522"/>
	<anchor name="belowLC" x="250" y="-182"/>
</glyph>
<glyph name="Lbar" format="2">
	<unicode hex="023D"/>
	<advance width="550"/>
	<outline>
		<contour>
			<point x="22" y="308" type="line"/>
			<point x="418" y="308" type="line"/>
			<point x="418" y="420" type="line"/>
			<point x="94" y="420" type="line"/>
			<point x="22" y="414" type="line"/>
		</contour>
		<component base="L" xOffset="20"/>
	</outline>
	<anchor name="aboveUC" x="180" y="672"/>
	<anchor name="belowLC" x="310" y="-22"/>
</glyph>
<glyph name="Jstroke" format="2">
	<unicode hex="0248"/>
	<advance width="540"/>
	<outline>
		<contour>
			<point x="166" y="318" type="line"/>
			<point x="522" y="318" type="line"/>
			<point x="522" y="430" type="line"/>
			<point x="282" y="430" type="line"/>
			<point x="166" y="424" type="line"/>
		</contour>
		<component base="J"/>
	</outline>
	<anchor name="aboveUC" x="360" y="672"/>
	<anchor name="belowLC" x="270" y="-22"/>
</glyph>
<glyph name="ereversed" format="2">
	<unicode hex="0258"/>
	<advance width="526"/>
	<outline>
		<contour>
			<point x="246" y="-12" type="curve" smooth="yes"/>
			<point x="386" y="-12"/>
			<point x="494" y="84"/>
			<point x="494" y="250" type="curve" smooth="yes"/>
			<point x="494" y="412"/>
			<point x="382" y="512"/>
			<point x="264" y="512" type="curve" smooth="yes"/>
			<point x="110" y="512"/>
			<point x="36" y="404"/>
			<point x="36" y="270" type="curve" smooth="yes"/>
			<point x="36" y="240"/>
			<point x="40" y="210"/>
			<point x="43" y="198" type="curve"/>
			<point x="358" y="198" type="line"/>
			<point x="360" y="310" type="line"/>
			<point x="182" y="310" type="line"/>
			<point x="182" y="348"/>
			<point x="200" y="382"/>
			<point x="260" y="382" type="curve" smooth="yes"/>
			<point x="298" y="382"/>
			<point x="340" y="352"/>
			<point x="336" y="250" type="curve" smooth="yes"/>
			<point x="332" y="140"/>
			<point x="276" y="118"/>
			<point x="222" y="118" type="curve" smooth="yes"/>
			<point x="184" y="118"/>
			<point x="146" y="128"/>
			<point x="108" y="148" type="curve"/>
			<point x="54" y="46" type="line"/>
			<point x="110" y="8"/>
			<point x="188" y="-12"/>
		</contour>
	</outline>
	<anchor name="aboveLC" x="270" y="522"/>
	<anchor name="belowLC" x="270" y="-22"/>
	<anchor name="ogonekLC" x="270" y="0"/>
</glyph>
<glyph name="schwa" format="2">
	<unicode hex="0259"/>
	<advance width="526"/>
	<outline>
		<contour>
			<point x="254" y="-12" type="curve" smooth="yes"/>
			<point x="376" y="-12"/>
			<point x="494" y="88"/>
			<point x="494" y="250" type="curve" smooth="yes"/>
			<point x="494" y="416"/>
			<point x="392" y="512"/>
			<point x="256" y="512" type="curve" smooth="yes"/>
			<point x="190" y="512"/>
			<point x="124" y="492"/>
			<point x="70" y="454" type="curve"/>
			<point x="124" y="352" type="line"/>
			<point x="160" y="372"/>
			<point x="192" y="382"/>
			<point x="232" y="382" type="curve" smooth="yes"/>
			<point x="280" y="382"/>
			<point x="332" y="360"/>
			<point x="336" y="250" type="curve" smooth="yes"/>
			<point x="340" y="148"/>
			<point x="292" y="118"/>
			<point x="250" y="118" type="curve" smooth="yes"/>
			<point x="198" y="118"/>
			<point x="182" y="152"/>
			<point x="182" y="190" type="curve"/>
			<point x="360" y="190" type="line"/>
			<point x="358" y="302" type="line"/>
			<point x="43" y="302" type="line"/>
			<point x="40" y="290"/>
			<point x="36" y="260"/>
			<point x="36" y="230" type="curve" smooth="yes"/>
			<point x="36" y="96"/>
			<point x="106" y="-12"/>
		</contour>
	</outline>
	<anchor name="aboveLC" x="260" y="522"/>
	<anchor name="belowLC" x="258" y="-22"/>
	<anchor name="ogonekLC" x="258" y="0"/>
</glyph>
<glyph name="eopenreversed" format="2">
	<unicode hex="025C"/>
	<advance width="450"/>
	<outline>
		<contour>
			<point x="198" y="-12" type="curve" smooth="yes"/>
			<point x="305" y="-12"/>
			<point x="416" y="37"/>
			<point x="416" y="134" type="curve" smooth="yes"/>
			<point x="416" y="206"/>
			<point x="376" y="246"/>
			<point x="314" y="262" type="curve"/>
			<point x="314" y="266" type="line"/>
			<point x="370" y="282"/>
			<point x="394" y="328"/>
			<point x="394" y="366" type="curve" smooth="yes"/>
			<point x="394" y="466"/>
			<point x="298" y="512"/>
			<point x="188" y="512" type="curve" smooth="yes"/>
			<point x="126" y="512"/>
			<point x="66" y="496"/>
			<point x="20" y="466" type="curve"/>
			<point x="80" y="362" type="line"/>
			<point x="112" y="378"/>
			<point x="138" y="382"/>
			<point x="172" y="382" type="curve" smooth="yes"/>
			<point x="208" y="382"/>
			<point x="226" y="365"/>
			<point x="226" y="344" type="curve" smooth="yes"/>
			<point x="226" y="319"/>
			<point x="206" y="310"/>
			<point x="174" y="310" type="curve" smooth="yes"/>
			<point x="112" y="310" type="line"/>
			<point x="112" y="198" type="line"/>
			<point x="190" y="198" type="line" smooth="yes"/>
			<point x="232" y="198"/>
			<point x="248" y="186"/>
			<point x="248" y="160" type="curve" smooth="yes"/>
			<point x="248" y="132"/>
			<point x="218" y="118"/>
			<point x="168" y="118" type="curve" smooth="yes"/>
			<point x="142" y="118"/>
			<point x="106" y="126"/>
			<point x="72" y="144" type="curve"/>
			<point x="16" y="42" type="line"/>
			<point x="64" y="2"/>
			<point x="124" y="-12"/>
		</contour>
	</outline>
	<anchor name="aboveLC" x="210" y="522"/>
	<anchor name="belowLC" x="210" y="-22"/>
</glyph>
<glyph name="eopenreversedclosed" format="2">
	<unicode hex="025E"/>
	<advance width="574"/>
	<outline>
		<contour>
			<point x="292" y="-12" type="curve" smooth="yes"/>
			<point x="414" y="-12"/>
			<point x="532" y="40"/>
			<point x="532" y="144" type="curve" smooth="yes"/>
			<point x="532" y="210"/>
			<point x="492" y="246"/>
			<point x="429" y="262" type="curve"/>
			<point x="429" y="266" type="line"/>
			<point x="486" y="282"/>
			<point x="510" y="328"/>
			<point x="510" y="366" type="curve" smooth="yes"/>
			<point x="510" y="469"/>
			<point x="410" y="512"/>
			<point x="296" y="512" type="curve" smooth="yes"/>
			<point x="160" y="512"/>
			<point x="32" y="418"/>
			<point x="32" y="226" type="curve" smooth="yes"/>
			<point x="32" y="66"/>
			<point x="148" y="-12"/>
		</contour>
		<contour>
			<point x="302" y="118" type="curve" smooth="yes"/>
			<point x="244" y="118"/>
			<point x="208" y="151"/>
			<point x="208" y="236" type="curve" smooth="yes"/>
			<point x="208" y="346"/>
			<point x="242" y="382"/>
			<point x="296" y="382" type="curve" smooth="yes"/>
			<point x="322" y="382"/>
			<point x="342" y="364"/>
			<point x="342" y="342" type="curve" smooth="yes"/>
			<point x="342" y="318"/>
			<point x="327" y="310"/>
			<point x="300" y="310" type="curve" smooth="yes"/>
			<point x="268" y="310" type="line"/>
			<point x="268" y="198" type="line"/>
			<point x="316" y="198" type="line" smooth="yes"/>
			<point x="350" y="198"/>
			<point x="364" y="190"/>
			<point x="364" y="162" type="curve" smooth="yes"/>
			<point x="364" y="136"/>
			<point x="338" y="118"/>
		</contour>
	</outline>
	<anchor name="aboveLC" x="310" y="522"/>
	<anchor name="belowLC" x="290" y="-22"/>
</glyph>
<glyph name="lezh" format="2">
	<unicode hex="026E"/>
	<advance width="644"/>
	<outline>
		<contour>
			<point x="58" y="0" type="line"/>
			<point x="230" y="0" type="line"/>
			<point x="230" y="696" type="line"/>
			<point x="58" y="696" type="line"/>
		</contour>
		<contour>
			<point x="396" y="-188" type="curve" smooth="yes"/>
			<point x="519" y="-188"/>
			<point x="622" y="-104"/>
			<point x="622" y="44" type="curve" smooth="yes"/>
			<point x="622" y="145"/>
			<point x="587" y="244"/>
			<point x="396" y="244" type="curve"/>
			<point x="467" y="210" type="line"/>
			<point x="598" y="408" type="line"/>
			<point x="598" y="500" type="line"/>
			<point x="206" y="500" type="line"/>
			<point x="206" y="366" type="line"/>
			<point x="394" y="366" type="line"/>
			<point x="278" y="188" type="line"/>
			<point x="332" y="108" type="line"/>
			<point x="354" y="116"/>
			<point x="362" y="118"/>
			<point x="388" y="118" type="curve" smooth="yes"/>
			<point x="424" y="118"/>
			<point x="450" y="90"/>
			<point x="450" y="40" type="curve" smooth="yes"/>
			<point x="450" y="-18"/>
			<point x="420" y="-50"/>
			<point x="374" y="-50" type="curve" smooth="yes"/>
			<point x="340" y="-50"/>
			<point x="311" y="-26"/>
			<point x="282" y="0" type="curve"/>
			<point x="206" y="-106" type="line"/>
			<point x="252" y="-150"/>
			<point x="310" y="-188"/>
		</contour>
	</outline>
	<anchor name="aboveUC" x="150" y="722"/>
	<anchor name="belowLC" x="410" y="-182"/>
</glyph>
<glyph name="glottalstopstroke" format="2">
	<unicode hex="02A1"/>
	<advance width="470"/>
	<outline>
		<contour>
			<point x="26" y="108" type="line"/>
			<point x="406" y="108" type="line"/>
			<point x="406" y="220" type="line"/>
			<point x="132" y="220" type="line"/>
			<point x="26" y="214" type="line"/>
		</contour>
		<component base="glottalstop" xOffset="10"/>
	</outline>
	<anchor name="aboveUC" x="230" y="722"/>
	<anchor name="belowLC" x="210" y="-22"/>
</glyph>
<glyph name="y.sups" format="2">
	<unicode hex="02B8"/>
	<advance width="366"/>
	<outline>
		<contour>
			<point x="90" y="248" type="curve" smooth="yes"/>
			<point x="176" y="248"/>
			<point x="212" y="286"/>
			<point x="248" y="376" type="curve"/>
			<point x="358" y="700" type="line"/>
			<point x="244" y="700" type="line"/>
			<point x="214" y="576" type="line" smooth="yes"/>
			<point x="206" y="544"/>
			<point x="198" y="514"/>
			<point x="192" y="482" type="curve"/>
			<point x="188" y="482" type="line"/>
			<point x="180" y="516"/>
			<point x="176" y="542"/>
			<point x="166" y="576" type="curve" smooth="yes"/>
			<point x="128" y="700" type="line"/>
			<point x="8" y="700" type="line"/>
			<point x="136" y="382" type="line"/>
			<point x="132" y="370" type="line" smooth="yes"/>
			<point x="126" y="352"/>
			<point x="110" y="338"/>
			<point x="80" y="338" type="curve" smooth="yes"/>
			<point x="74" y="338"/>
			<point x="70" y="338"/>
			<point x="58" y="342" type="curve"/>
			<point x="38" y="254" type="line"/>
			<point x="54" y="250"/>
			<point x="68" y="248"/>
		</contour>
	</outline>
</glyph>
<glyph name="commaturnedmod" format="2">
	<unicode hex="02BB"/>
	<advance width="320"/>
	<outline>
		<contour>
			<point x="172" y="360" type="curve" smooth="yes"/>
			<point x="227" y="360"/>
			<point x="274" y="398"/>
			<point x="274" y="456" type="curve" smooth="yes"/>
			<point x="274" y="508"/>
			<point x="230" y="538"/>
			<point x="186" y="538" type="curve" smooth="yes"/>
			<point x="162" y="538"/>
			<point x="134" y="526"/>
			<point x="120" y="512" type="curve"/>
			<point x="146" y="512" type="line"/>
			<point x="146" y="518"/>
			<point x="146" y="522"/>
			<point x="146" y="528" type="curve" smooth="yes"/>
			<point x="146" y="564"/>
			<point x="182" y="622"/>
			<point x="248" y="642" type="curve"/>
			<point x="208" y="724" type="line"/>
			<point x="80" y="684"/>
			<point x="36" y="596"/>
			<point x="36" y="498" type="curve" smooth="yes"/>
			<point x="36" y="414"/>
			<point x="90" y="360"/>
		</contour>
	</outline>
</glyph>
<glyph name="ringhalfrightmod" format="2">
	<unicode hex="02BE"/>
	<advance width="280"/>
	<outline>
		<contour>
			<point x="50" y="370" type="line"/>
			<point x="174" y="364"/>
			<point x="242" y="420"/>
			<point x="242" y="534" type="curve" smooth="yes"/>
			<point x="242" y="648"/>
			<point x="174" y="704"/>
			<point x="50" y="698" type="curve"/>
			<point x="50" y="604" type="line"/>
			<point x="100" y="604"/>
			<point x="120" y="582"/>
			<point x="120" y="534" type="curve" smooth="yes"/>
			<point x="120" y="484"/>
			<point x="100" y="464"/>
			<point x="50" y="464" type="curve"/>
		</contour>
	</outline>
</glyph>
<glyph name="ringhalfleftmod" format="2">
	<unicode hex="02BF"/>
	<advance width="280"/>
	<outline>
		<contour>
			<point x="230" y="370" type="curve"/>
			<point x="230" y="464" type="line"/>
			<point x="180" y="464"/>
			<point x="160" y="484"/>
			<point x="160" y="534" type="curve" smooth="yes"/>
			<point x="160" y="582"/>
			<point x="180" y="604"/>
			<point x="230" y="604" type="curve"/>
			<point x="230" y="698" type="line"/>
			<point x="106" y="704"/>
			<point x="38" y="648"/>
			<point x="38" y="534" type="curve" smooth="yes"/>
			<point x="38" y="420"/>
			<point x="106" y="364"/>
		</contour>
	</outline>
</glyph>
<glyph name="glottalstopreversedmod" format="2">
	<unicode hex="02C1"/>
	<advance width="360"/>
	<outline>
		<contour>
			<point x="136" y="368" type="line"/>
			<point x="256" y="368" type="line"/>
			<point x="256" y="476" type="line"/>
			<point x="176" y="504"/>
			<point x="152" y="528"/>
			<point x="152" y="566" type="curve" smooth="yes"/>
			<point x="152" y="594"/>
			<point x="172" y="612"/>
			<point x="206" y="612" type="curve" smooth="yes"/>
			<point x="234" y="612"/>
			<point x="259" y="599"/>
			<point x="280" y="578" type="curve"/>
			<point x="340" y="644" type="line"/>
			<point x="308" y="680"/>
			<point x="258" y="708"/>
			<point x="196" y="708" type="curve" smooth="yes"/>
			<point x="98" y="708"/>
			<point x="32" y="657"/>
			<point x="32" y="568" type="curve" smooth="yes"/>
			<point x="32" y="502"/>
			<point x="74" y="458"/>
			<point x="136" y="432" type="curve"/>
		</contour>
	</outline>
</glyph>
<glyph name="hookrhoticmod" format="2">
	<unicode hex="02DE"/>
	<advance width="226"/>
	<outline>
		<contour>
			<point x="142" y="194" type="curve" smooth="yes"/>
			<point x="186" y="194"/>
			<point x="214" y="206"/>
			<point x="236" y="220" type="curve"/>
			<point x="202" y="300" type="line"/>
			<point x="192" y="294"/>
			<point x="180" y="290"/>
			<point x="162" y="290" type="curve" smooth="yes"/>
			<point x="130" y="290"/>
			<point x="110" y="316"/>
			<point x="110" y="388" type="curve" smooth="yes"/>
			<point x="110" y="408"/>
			<point x="110" y="428"/>
			<point x="112" y="456" type="curve"/>
			<point x="100" y="466" type="line"/>
			<point x="-121" y="374" type="line"/>
			<point x="-121" y="258" type="line"/>
			<point x="26" y="322" type="line"/>
			<point x="26" y="316" type="line" smooth="yes"/>
			<point x="26" y="228"/>
			<point x="82" y="194"/>
		</contour>
	</outline>
</glyph>
<glyph name="caroncmb" format="2">
	<unicode hex="030C"/>
	<outline>
		<contour>
			<point x="-80" y="570" type="line"/>
			<point x="80" y="570" type="line"/>
			<point x="210" y="760" type="line"/>
			<point x="80" y="760" type="line"/>
			<point x="2" y="680" type="line"/>
			<point x="-2" y="680" type="line"/>
			<point x="-80" y="760" type="line"/>
			<point x="-210" y="760" type="line"/>
		</contour>
	</outline>
	<anchor name="_aboveLC" x="0" y="522"/>
	<anchor name="aboveLC" x="0" y="742"/>
</glyph>
<glyph name="leftangleabovecmb" format="2">
	<unicode hex="031A"/>
	<outline>
		<contour>
			<point x="16" y="574" type="line"/>
			<point x="104" y="574" type="line"/>
			<point x="104" y="728" type="line"/>
			<point x="-92" y="728" type="line"/>
			<point x="-92" y="648" type="line"/>
			<point x="16" y="648" type="line"/>
		</contour>
	</outline>
	<anchor name="_aboverightLC" x="0" y="522"/>
</glyph>
<glyph name="downtackbelowcmb" format="2">
	<unicode hex="031E"/>
	<outline>
		<contour>
			<point x="-44" y="-260" type="line"/>
			<point x="44" y="-260" type="line"/>
			<point x="44" y="-156" type="line"/>
			<point x="112" y="-156" type="line"/>
			<point x="112" y="-76" type="line"/>
			<point x="-112" y="-76" type="line"/>
			<point x="-112" y="-156" type="line"/>
			<point x="-44" y="-156" type="line"/>
		</contour>
	</outline>
	<anchor name="_belowLC" x="0" y="-22"/>
</glyph>
<glyph name="minusbelowcmb" format="2">
	<unicode hex="0320"/>
	<outline>
		<contour>
			<point x="-112" y="-196" type="line"/>
			<point x="112" y="-196" type="line"/>
			<point x="112" y="-116" type="line"/>
			<point x="-112" y="-116" type="line"/>
		</contour>
	</outline>
	<anchor name="_belowLC" x="0" y="-22"/>
</glyph>
<glyph name="tildeoverlaycmb" format="2">
	<unicode hex="0334"/>
	<outline>
		<contour>
			<point x="124" y="164" type="curve" smooth="yes"/>
			<point x="192" y="164"/>
			<point x="236" y="204"/>
			<point x="240" y="302" type="curve"/>
			<point x="134" y="324" type="line"/>
			<point x="130" y="292"/>
			<point x="120" y="282"/>
			<point x="104" y="282" type="curve" smooth="yes"/>
			<point x="46" y="282"/>
			<point x="-17" y="338"/>
			<point x="-124" y="338" type="curve" smooth="yes"/>
			<point x="-192" y="338"/>
			<point x="-236" y="298"/>
			<point x="-240" y="200" type="curve"/>
			<point x="-134" y="178" type="line"/>
			<point x="-130" y="210"/>
			<point x="-120" y="220"/>
			<point x="-104" y="220" type="curve" smooth="yes"/>
			<point x="-46" y="220"/>
			<point x="19" y="164"/>
		</contour>
	</outline>
	<anchor name="_center" x="0" y="250"/>
</glyph>
<glyph name="slashlongcmb" format="2">
	<unicode hex="0338"/>
	<outline>
		<contour>
			<point x="-568" y="-46" type="line"/>
			<point x="-16" y="628" type="line"/>
			<point x="-104" y="696" type="line"/>
			<point x="-656" y="22" type="line"/>
		</contour>
	</outline>
</glyph>
<glyph name="seagullbelowcmb" format="2">
	<unicode hex="033C"/>
	<outline>
		<contour>
			<point x="-195" y="-238" type="curve"/>
			<point x="-109" y="-250" type="line"/>
			<point x="-109" y="-193"/>
			<point x="-98" y="-179"/>
			<point x="-75" y="-179" type="curve" smooth="yes"/>
			<point x="-47" y="-179"/>
			<point x="-40" y="-200"/>
			<point x="-40" y="-225" type="curve" smooth="yes"/>
			<point x="-40" y="-248" type="line"/>
			<point x="40" y="-248" type="line"/>
			<point x="40" y="-225" type="line" smooth="yes"/>
			<point x="40" y="-200"/>
			<point x="47" y="-179"/>
			<point x="74" y="-179" type="curve" smooth="yes"/>
			<point x="97" y="-179"/>
			<point x="109" y="-193"/>
			<point x="109" y="-250" type="curve"/>
			<point x="195" y="-238" type="line"/>
			<point x="195" y="-129"/>
			<point x="161" y="-74"/>
			<point x="80" y="-74" type="curve" smooth="yes"/>
			<point x="44" y="-74"/>
			<point x="15" y="-92"/>
			<point x="2" y="-126" type="curve"/>
			<point x="-2" y="-126" type="line"/>
			<point x="-15" y="-92"/>
			<point x="-43" y="-74"/>
			<point x="-80" y="-74" type="curve" smooth="yes"/>
			<point x="-160" y="-74"/>
			<point x="-195" y="-129"/>
		</contour>
	</outline>
	<anchor name="_belowLC" x="0" y="-22"/>
</glyph>
<glyph name="dialytikatonoscmb" format="2">
	<unicode hex="0344"/>
	<outline>
		<contour>
			<point x="-144" y="562" type="curve" smooth="yes"/>
			<point x="-100" y="562"/>
			<point x="-68" y="596"/>
			<point x="-68" y="638" type="curve" smooth="yes"/>
			<point x="-68" y="680"/>
			<point x="-100" y="714"/>
			<point x="-144" y="714" type="curve" smooth="yes"/>
			<point x="-188" y="714"/>
			<point x="-220" y="680"/>
			<point x="-220" y="638" type="curve" smooth="yes"/>
			<point x="-220" y="596"/>
			<point x="-188" y="562"/>
		</contour>
		<contour>
			<point x="144" y="562" type="curve" smooth="yes"/>
			<point x="188" y="562"/>
			<point x="220" y="596"/>
			<point x="220" y="638" type="curve" smooth="yes"/>
			<point x="220" y="680"/>
			<point x="188" y="714"/>
			<point x="144" y="714" type="curve" smooth="yes"/>
			<point x="100" y="714"/>
			<point x="68" y="680"/>
			<point x="68" y="638" type="curve" smooth="yes"/>
			<point x="68" y="596"/>
			<point x="100" y="562"/>
		</contour>
		<contour>
			<point x="-60" y="572" type="line"/>
			<point x="10" y="572" type="line"/>
			<point x="100" y="776" type="line"/>
			<point x="90" y="794" type="line"/>
			<point x="-30" y="794" type="line"/>
		</contour>
	</outline>
	<anchor name="_aboveLC" x="0" y="522"/>
</glyph>
<glyph name="Theta" format="2">
	<unicode hex="0398"/>
	<advance width="692"/>
	<outline>
		<contour>
			<point x="254" y="258" type="line"/>
			<point x="438" y="258" type="line"/>
			<point x="438" y="408" type="line"/>
			<point x="254" y="408" type="line"/>
		</contour>
		<component base="O"/>
	</outline>
	<anchor name="aboveUC" x="346" y="672"/>
</glyph>
<glyph name="upsilon" format="2">
	<unicode hex="03C5"/>
	<advance width="540"/>
	<outline>
		<contour>
			<point x="264" y="-12" type="curve" smooth="yes"/>
			<point x="424" y="-12"/>
			<point x="502" y="96"/>
			<point x="502" y="267" type="curve" smooth="yes"/>
			<point x="502" y="348"/>
			<point x="486" y="434"/>
			<point x="466" y="512" type="curve"/>
			<point x="300" y="476" type="line"/>
			<point x="322" y="386"/>
			<point x="330" y="318"/>
			<point x="330" y="258" type="curve" smooth="yes"/>
			<point x="330" y="166"/>
			<point x="310" y="126"/>
			<point x="264" y="126" type="curve" smooth="yes"/>
			<point x="230" y="126"/>
			<point x="206" y="152"/>
			<point x="206" y="192" type="curve" smooth="yes"/>
			<point x="206" y="260"/>
			<point x="212" y="338"/>
			<point x="212" y="374" type="curve" smooth="yes"/>
			<point x="212" y="422"/>
			<point x="210" y="466"/>
			<point x="202" y="500" type="curve"/>
			<point x="36" y="500" type="line"/>
			<point x="46" y="444"/>
			<point x="48" y="380"/>
			<point x="48" y="340" type="curve" smooth="yes"/>
			<point x="48" y="296"/>
			<point x="44" y="252"/>
			<point x="44" y="207" type="curve" smooth="yes"/>
			<point x="44" y="84"/>
			<point x="104" y="-12"/>
		</contour>
	</outline>
	<anchor name="aboveLC" x="264" y="522"/>
	<anchor name="belowLC" x="260" y="-22"/>
</glyph>
<glyph name="chi" format="2">
	<unicode hex="03C7"/>
	<advance width="544"/>
	<outline>
		<contour>
			<point x="186" y="-188" type="line"/>
			<point x="278" y="30" type="line"/>
			<point x="282" y="30" type="line"/>
			<point x="390" y="-188" type="line"/>
			<point x="560" y="-152" type="line"/>
			<point x="364" y="170" type="line"/>
			<point x="534" y="500" type="line"/>
			<point x="356" y="500" type="line"/>
			<point x="282" y="316" type="line"/>
			<point x="278" y="316" type="line"/>
			<point x="176" y="512" type="line"/>
			<point x="6" y="476" type="line"/>
			<point x="195" y="166" type="line"/>
			<point x="8" y="-176" type="line"/>
		</contour>
	</outline>
	<anchor name="aboveLC" x="280" y="522"/>
	<anchor name="belowLC" x="280" y="-182"/>
</glyph>
<glyph name="psi" format="2">
	<unicode hex="03C8"/>
	<advance width="776"/>
	<outline>
		<contour>
			<point x="320" y="-12" type="curve"/>
			<point x="310" y="122" type="line"/>
			<point x="230" y="122"/>
			<point x="212" y="178"/>
			<point x="212" y="228" type="curve" smooth="yes"/>
			<point x="212" y="268"/>
			<point x="214" y="338"/>
			<point x="214" y="374" type="curve" smooth="yes"/>
			<point x="214" y="422"/>
			<point x="212" y="466"/>
			<point x="204" y="500" type="curve"/>
			<point x="38" y="500" type="line"/>
			<point x="48" y="444"/>
			<point x="50" y="380"/>
			<point x="50" y="340" type="curve" smooth="yes"/>
			<point x="50" y="243" type="line" smooth="yes"/>
			<point x="50" y="110"/>
			<point x="112" y="-12"/>
		</contour>
		<contour>
			<point x="458" y="-12" type="line"/>
			<point x="642" y="-12"/>
			<point x="734" y="94"/>
			<point x="734" y="287" type="curve" smooth="yes"/>
			<point x="734" y="362"/>
			<point x="720" y="442"/>
			<point x="698" y="512" type="curve"/>
			<point x="532" y="476" type="line"/>
			<point x="554" y="396"/>
			<point x="562" y="334"/>
			<point x="562" y="278" type="curve" smooth="yes"/>
			<point x="562" y="156"/>
			<point x="528" y="122"/>
			<point x="458" y="122" type="curve"/>
		</contour>
		<contour>
			<point x="308" y="-176" type="line"/>
			<point x="464" y="-176" type="line"/>
			<point x="464" y="650" type="line"/>
			<point x="308" y="650" type="line"/>
		</contour>
	</outline>
	<anchor name="aboveLC" x="380" y="662"/>
	<anchor name="belowLC" x="380" y="-182"/>
</glyph>
<glyph name="phi" format="2">
	<unicode hex="03D5"/>
	<unicode hex="03C6"/>
	<advance width="760"/>
	<outline>
		<contour>
			<point x="302" y="-176" type="line"/>
			<point x="458" y="-176" type="line"/>
			<point x="458" y="650" type="line"/>
			<point x="302" y="650" type="line"/>
		</contour>
		<contour>
			<point x="318" y="-8" type="curve"/>
			<point x="308" y="120" type="line"/>
			<point x="244" y="122"/>
			<point x="208" y="164"/>
			<point x="208" y="250" type="curve" smooth="yes"/>
			<point x="208" y="336"/>
			<point x="244" y="378"/>
			<point x="308" y="380" type="curve"/>
			<point x="318" y="508" type="line"/>
			<point x="162" y="506"/>
			<point x="32" y="416"/>
			<point x="32" y="250" type="curve" smooth="yes"/>
			<point x="32" y="84"/>
			<point x="162" y="-6"/>
		</contour>
		<contour>
			<point x="442" y="-8" type="line"/>
			<point x="598" y="-6"/>
			<point x="728" y="84"/>
			<point x="728" y="250" type="curve" smooth="yes"/>
			<point x="728" y="416"/>
			<point x="598" y="506"/>
			<point x="442" y="508" type="curve"/>
			<point x="452" y="380" type="line"/>
			<point x="516" y="378"/>
			<point x="552" y="336"/>
			<point x="552" y="250" type="curve" smooth="yes"/>
			<point x="552" y="164"/>
			<point x="516" y="122"/>
			<point x="452" y="120" type="curve"/>
		</contour>
	</outline>
	<anchor name="aboveLC" x="380" y="662"/>
	<anchor name="belowLC" x="380" y="-182"/>
</glyph>
<glyph name="Ze" format="2">
	<unicode hex="0417"/>
	<advance width="558"/>
	<outline>
		<contour>
			<point x="284" y="-12" type="curve" smooth="yes"/>
			<point x="414" y="-12"/>
			<point x="528" y="60"/>
			<point x="528" y="194" type="curve" smooth="yes"/>
			<point x="528" y="268"/>
			<point x="482" y="324"/>
			<point x="421" y="342" type="curve"/>
			<point x="421" y="346" type="line"/>
			<point x="472" y="372"/>
			<point x="498" y="424"/>
			<point x="498" y="484" type="curve" smooth="yes"/>
			<point x="498" y="594"/>
			<point x="418" y="662"/>
			<point x="258" y="662" type="curve" smooth="yes"/>
			<point x="172" y="662"/>
			<point x="98" y="630"/>
			<point x="40" y="574" type="curve"/>
			<point x="126" y="468" type="line"/>
			<point x="170" y="498"/>
			<point x="204" y="514"/>
			<point x="252" y="514" type="curve" smooth="yes"/>
			<point x="298" y="514"/>
			<point x="330" y="494"/>
			<point x="330" y="454" type="curve" smooth="yes"/>
			<point x="330" y="416"/>
			<point x="304" y="396"/>
			<point x="244" y="396" type="curve" smooth="yes"/>
			<point x="172" y="396" type="line"/>
			<point x="172" y="270" type="line"/>
			<point x="264" y="270" type="line" smooth="yes"/>
			<point x="332" y="270"/>
			<point x="360" y="252"/>
			<point x="360" y="208" type="curve" smooth="yes"/>
			<point x="360" y="162"/>
			<point x="322" y="136"/>
			<point x="262" y="136" type="curve" smooth="yes"/>
			<point x="214" y="136"/>
			<point x="158" y="154"/>
			<point x="112" y="194" type="curve"/>
			<point x="22" y="88" type="line"/>
			<point x="94" y="14"/>
			<point x="174" y="-12"/>
		</contour>
	</outline>
</glyph>
<glyph name="Sha" format="2">
	<unicode hex="0428"/>
	<advance width="928"/>
	<outline>
		<contour>
			<point x="72" y="0" type="line"/>
			<point x="856" y="0" type="line"/>
			<point x="856" y="650" type="line"/>
			<point x="688" y="650" type="line"/>
			<point x="688" y="144" type="line"/>
			<point x="546" y="144" type="line"/>
			<point x="546" y="650" type="line"/>
			<point x="382" y="650" type="line"/>
			<point x="382" y="144" type="line"/>
			<point x="240" y="144" type="line"/>
			<point x="240" y="650" type="line"/>
			<point x="72" y="650" type="line"/>
		</contour>
	</outline>
</glyph>
<glyph name="Ecyr" format="2">
	<unicode hex="042D"/>
	<advance width="586"/>
	<outline>
		<contour>
			<point x="238" y="-12" type="curve" smooth="yes"/>
			<point x="402" y="-12"/>
			<point x="542" y="86"/>
			<point x="542" y="320" type="curve" smooth="yes"/>
			<point x="542" y="554"/>
			<point x="408" y="662"/>
			<point x="242" y="662" type="curve" smooth="yes"/>
			<point x="152" y="662"/>
			<point x="86" y="628"/>
			<point x="34" y="576" type="curve"/>
			<point x="114" y="472" type="line"/>
			<point x="150" y="502"/>
			<point x="186" y="514"/>
			<point x="232" y="514" type="curve" smooth="yes"/>
			<point x="320" y="514"/>
			<point x="372" y="462"/>
			<point x="372" y="326" type="curve" smooth="yes"/>
			<point x="372" y="186"/>
			<point x="320" y="136"/>
			<point x="236" y="136" type="curve" smooth="yes"/>
			<point x="182" y="136"/>
			<point x="140" y="154"/>
			<point x="108" y="186" type="curve"/>
			<point x="18" y="84" type="line"/>
			<point x="78" y="18"/>
			<point x="154" y="-12"/>
		</contour>
		<contour>
			<point x="160" y="260" type="line"/>
			<point x="442" y="260" type="line"/>
			<point x="442" y="404" type="line"/>
			<point x="160" y="404" type="line"/>
		</contour>
	</outline>
	<anchor name="aboveUC" x="264" y="672"/>
</glyph>
<glyph name="de" format="2">
	<unicode hex="0434"/>
	<advance width="604"/>
	<outline>
		<contour>
			<point x="172" y="0" type="line"/>
			<point x="432" y="0" type="line"/>
			<point x="432" y="-172" type="line"/>
			<point x="580" y="-172" type="line"/>
			<point x="596" y="20" type="line"/>
			<point x="596" y="134" type="line"/>
			<point x="8" y="134" type="line"/>
			<point x="8" y="20" type="line"/>
			<point x="24" y="-172" type="line"/>
			<point x="172" y="-172" type="line"/>
		</contour>
		<contour>
			<point x="342" y="50" type="line"/>
			<point x="514" y="50" type="line"/>
			<point x="514" y="500" type="line"/>
			<point x="118" y="500" type="line"/>
			<point x="96" y="310" type="line" smooth="yes"/>
			<point x="80" y="176"/>
			<point x="64" y="146"/>
			<point x="42" y="134" type="curve"/>
			<point x="51" y="34" type="line"/>
			<point x="156" y="34"/>
			<point x="226" y="108"/>
			<point x="244" y="270" type="curve" smooth="yes"/>
			<point x="254" y="366" type="line"/>
			<point x="342" y="366" type="line"/>
		</contour>
	</outline>
</glyph>
<glyph name="em" format="2">
	<unicode hex="043C"/>
	<advance width="670"/>
	<outline>
		<contour>
			<point x="58" y="0" type="line"/>
			<point x="208" y="0" type="line"/>
			<point x="208" y="92" type="line" smooth="yes"/>
			<point x="208" y="149"/>
			<point x="196" y="266"/>
			<point x="190" y="324" type="curve"/>
			<point x="194" y="324" type="line"/>
			<point x="208" y="280"/>
			<point x="230" y="220"/>
			<point x="244" y="176" type="curve"/>
			<point x="290" y="42" type="line"/>
			<point x="380" y="42" type="line"/>
			<point x="424" y="176" type="line"/>
			<point x="438" y="220"/>
			<point x="460" y="278"/>
			<point x="474" y="324" type="curve"/>
			<point x="478" y="324" type="line"/>
			<point x="472" y="266"/>
			<point x="460" y="149"/>
			<point x="460" y="92" type="curve" smooth="yes"/>
			<point x="460" y="0" type="line"/>
			<point x="612" y="0" type="line"/>
			<point x="612" y="500" type="line"/>
			<point x="417" y="500" type="line"/>
			<point x="372" y="352" type="line" smooth="yes"/>
			<point x="361" y="312"/>
			<point x="350" y="278"/>
			<point x="340" y="244" type="curve"/>
			<point x="336" y="244" type="line"/>
			<point x="326" y="278"/>
			<point x="316" y="312"/>
			<point x="304" y="352" type="curve" smooth="yes"/>
			<point x="254" y="500" type="line"/>
			<point x="58" y="500" type="line"/>
		</contour>
	</outline>
</glyph>
<glyph name="te" format="2">
	<unicode hex="0442"/>
	<advance width="504"/>
	<outline>
		<contour>
			<point x="166" y="0" type="line"/>
			<point x="338" y="0" type="line"/>
			<point x="338" y="366" type="line"/>
			<point x="478" y="366" type="line"/>
			<point x="478" y="500" type="line"/>
			<point x="26" y="500" type="line"/>
			<point x="26" y="366" type="line"/>
			<point x="166" y="366" type="line"/>
		</contour>
	</outline>
</glyph>
<glyph name="gheup" format="2">
	<unicode hex="0491"/>
	<advance width="440"/>
	<outline>
		<contour>
			<point x="58" y="0" type="line"/>
			<point x="230" y="0" type="line"/>
			<point x="230" y="366" type="line"/>
			<point x="414" y="366" type="line"/>
			<point x="424" y="672" type="line"/>
			<point x="284" y="672" type="line"/>
			<point x="261" y="500" type="line"/>
			<point x="58" y="500" type="line"/>
		</contour>
	</outline>
</glyph>
<glyph name="Kahook" format="2">
	<unicode hex="04C3"/>
	<advance width="642"/>
	<outline>
		<contour>
			<point x="342" y="-188" type="curve" smooth="yes"/>
			<point x="498" y="-188"/>
			<point x="606" y="-82"/>
			<point x="606" y="112" type="curve" smooth="yes"/>
			<point x="606" y="322"/>
			<point x="464" y="400"/>
			<point x="322" y="400" type="curve"/>
			<point x="438" y="344" type="line"/>
			<point x="490" y="452" type="line" smooth="yes"/>
			<point x="508" y="490"/>
			<point x="524" y="502"/>
			<point x="548" y="502" type="curve" smooth="yes"/>
			<point x="562" y="502"/>
			<point x="572" y="500"/>
			<point x="578" y="498" type="curve"/>
			<point x="606" y="652" type="line"/>
			<point x="590" y="660"/>
			<point x="566" y="662"/>
			<point x="540" y="662" type="curve" smooth="yes"/>
			<point x="466" y="662"/>
			<point x="404" y="634"/>
			<point x="366" y="546" type="curve" smooth="yes"/>
			<point x="304" y="402" type="line"/>
			<point x="244" y="402" type="line"/>
			<point x="244" y="650" type="line"/>
			<point x="72" y="650" type="line"/>
			<point x="72" y="0" type="line"/>
			<point x="244" y="0" type="line"/>
			<point x="244" y="264" type="line"/>
			<point x="296" y="264" type="line" smooth="yes"/>
			<point x="389" y="264"/>
			<point x="438" y="212"/>
			<point x="438" y="110" type="curve" smooth="yes"/>
			<point x="438" y="-4"/>
			<point x="370" y="-54"/>
			<point x="314" y="-54" type="curve" smooth="yes"/>
			<point x="302" y="-54"/>
			<point x="292" y="-52"/>
			<point x="278" y="-48" type="curve"/>
			<point x="248" y="-174" type="line"/>
			<point x="270" y="-182"/>
			<point x="296" y="-188"/>
		</contour>
	</outline>
</glyph>
<glyph name="ain" format="2">
	<unicode hex="1D25"/>
	<advance width="592"/>
	<outline>
		<contour>
			<point x="114" y="-12" type="curve" smooth="yes"/>
			<point x="164" y="-12"/>
			<point x="224" y="4"/>
			<point x="296" y="64" type="curve"/>
			<point x="368" y="4"/>
			<point x="428" y="-12"/>
			<point x="478" y="-12" type="curve" smooth="yes"/>
			<point x="514" y="-12"/>
			<point x="555" y="0"/>
			<point x="576" y="16" type="curve"/>
			<point x="528" y="138" type="line"/>
			<point x="516" y="130"/>
			<point x="499" y="126"/>
			<point x="482" y="126" type="curve" smooth="yes"/>
			<point x="452" y="126"/>
			<point x="428" y="137"/>
			<point x="402" y="158" type="curve"/>
			<point x="472" y="218"/>
			<point x="502" y="290"/>
			<point x="502" y="336" type="curve" smooth="yes"/>
			<point x="502" y="442"/>
			<point x="418" y="512"/>
			<point x="296" y="512" type="curve" smooth="yes"/>
			<point x="174" y="512"/>
			<point x="90" y="442"/>
			<point x="90" y="336" type="curve" smooth="yes"/>
			<point x="90" y="290"/>
			<point x="120" y="218"/>
			<point x="190" y="158" type="curve"/>
			<point x="164" y="137"/>
			<point x="138" y="126"/>
			<point x="110" y="126" type="curve" smooth="yes"/>
			<point x="92" y="126"/>
			<point x="76" y="130"/>
			<point x="64" y="138" type="curve"/>
			<point x="16" y="16" type="line"/>
			<point x="37" y="0"/>
			<point x="78" y="-12"/>
		</contour>
	</outline>
	<anchor name="aboveLC" x="300" y="522"/>
	<anchor name="belowLC" x="300" y="-22"/>
</glyph>
<glyph name="B.sups" format="2">
	<unicode hex="1D2E"/>
	<advance width="413"/>
	<outline>
		<contour>
			<point x="47" y="368" type="line"/>
			<point x="222" y="368" type="line" smooth="yes"/>
			<point x="315" y="368"/>
			<point x="393" y="408"/>
			<point x="393" y="497" type="curve" smooth="yes"/>
			<point x="393" y="553"/>
			<point x="363" y="585"/>
			<point x="302" y="597" type="curve"/>
			<point x="302" y="599" type="line"/>
			<point x="353" y="615"/>
			<point x="374" y="657"/>
			<point x="374" y="694" type="curve" smooth="yes"/>
			<point x="374" y="778"/>
			<point x="299" y="800"/>
			<point x="208" y="800" type="curve" smooth="yes"/>
			<point x="47" y="800" type="line"/>
		</contour>
		<contour>
			<point x="167" y="631" type="line"/>
			<point x="167" y="709" type="line"/>
			<point x="204" y="709" type="line" smooth="yes"/>
			<point x="241" y="709"/>
			<point x="257" y="698"/>
			<point x="257" y="674" type="curve" smooth="yes"/>
			<point x="257" y="650"/>
			<point x="240" y="631"/>
			<point x="204" y="631" type="curve" smooth="yes"/>
		</contour>
		<contour>
			<point x="167" y="459" type="line"/>
			<point x="167" y="549" type="line"/>
			<point x="213" y="549" type="line" smooth="yes"/>
			<point x="257" y="549"/>
			<point x="276" y="536"/>
			<point x="276" y="507" type="curve" smooth="yes"/>
			<point x="276" y="477"/>
			<point x="257" y="459"/>
			<point x="213" y="459" type="curve" smooth="yes"/>
		</contour>
	</outline>
</glyph>
<glyph name="D.sups" format="2">
	<unicode hex="1D30"/>
	<advance width="433"/>
	<outline>
		<contour>
			<point x="47" y="368" type="line"/>
			<point x="184" y="368" type="line" smooth="yes"/>
			<point x="312" y="368"/>
			<point x="404" y="433"/>
			<point x="404" y="588" type="curve" smooth="yes"/>
			<point x="404" y="740"/>
			<point x="312" y="800"/>
			<point x="177" y="800" type="curve" smooth="yes"/>
			<point x="47" y="800" type="line"/>
		</contour>
		<contour>
			<point x="167" y="463" type="line"/>
			<point x="167" y="705" type="line"/>
			<point x="173" y="705" type="line" smooth="yes"/>
			<point x="235" y="705"/>
			<point x="281" y="688"/>
			<point x="281" y="586" type="curve" smooth="yes"/>
			<point x="281" y="487"/>
			<point x="235" y="463"/>
			<point x="173" y="463" type="curve" smooth="yes"/>
		</contour>
	</outline>
</glyph>
<glyph name="E.sups" format="2">
	<unicode hex="1D31"/>
	<advance width="376"/>
	<outline>
		<contour>
			<point x="47" y="368" type="line"/>
			<point x="339" y="368" type="line"/>
			<point x="339" y="467" type="line"/>
			<point x="167" y="467" type="line"/>
			<point x="167" y="539" type="line"/>
			<point x="309" y="539" type="line"/>
			<point x="309" y="638" type="line"/>
			<point x="167" y="638" type="line"/>
			<point x="167" y="701" type="line"/>
			<point x="333" y="701" type="line"/>
			<point x="333" y="800" type="line"/>
			<point x="47" y="800" type="line"/>
		</contour>
	</outline>
</glyph>
<glyph name="M.sups" format="2">
	<unicode hex="1D39"/>
	<advance width="525"/>
	<outline>
		<contour>
			<point x="47" y="368" type="line"/>
			<point x="157" y="368" type="line"/>
			<point x="157" y="490" type="line" smooth="yes"/>
			<point x="157" y="535"/>
			<point x="147" y="604"/>
			<point x="142" y="644" type="curve"/>
			<point x="144" y="644" type="line"/>
			<point x="181" y="544" type="line"/>
			<point x="240" y="404" type="line"/>
			<point x="283" y="404" type="line"/>
			<point x="342" y="544" type="line"/>
			<point x="380" y="644" type="line"/>
			<point x="383" y="644" type="line"/>
			<point x="377" y="604"/>
			<point x="367" y="535"/>
			<point x="367" y="490" type="curve" smooth="yes"/>
			<point x="367" y="368" type="line"/>
			<point x="479" y="368" type="line"/>
			<point x="479" y="800" type="line"/>
			<point x="354" y="800" type="line"/>
			<point x="290" y="625" type="line"/>
			<point x="267" y="556" type="line"/>
			<point x="264" y="556" type="line"/>
			<point x="240" y="625" type="line"/>
			<point x="170" y="800" type="line"/>
			<point x="47" y="800" type="line"/>
		</contour>
	</outline>
</glyph>
<glyph name="N.sups" format="2">
	<unicode hex="1D3A"/>
	<advance width="452"/>
	<outline>
		<contour>
			<point x="47" y="368" type="line"/>
			<point x="159" y="368" type="line"/>
			<point x="159" y="488" type="line" smooth="yes"/>
			<point x="159" y="540"/>
			<point x="152" y="603"/>
			<point x="146" y="653" type="curve"/>
			<point x="149" y="653" type="line"/>
			<point x="190" y="557" type="line"/>
			<point x="281" y="368" type="line"/>
			<point x="406" y="368" type="line"/>
			<point x="406" y="800" type="line"/>
			<point x="294" y="800" type="line"/>
			<point x="294" y="683" type="line" smooth="yes"/>
			<point x="294" y="629"/>
			<point x="301" y="563"/>
			<point x="307" y="515" type="curve"/>
			<point x="304" y="515" type="line"/>
			<point x="263" y="614" type="line"/>
			<point x="172" y="800" type="line"/>
			<point x="47" y="800" type="line"/>
		</contour>
	</outline>
</glyph>
<glyph name="b.sups" format="2">
	<unicode hex="1D47"/>
	<advance width="390"/>
	<outline>
		<contour>
			<point x="228" y="360" type="curve" smooth="yes"/>
			<point x="298" y="360"/>
			<point x="366" y="424"/>
			<point x="366" y="540" type="curve" smooth="yes"/>
			<point x="366" y="640"/>
			<point x="314" y="708"/>
			<point x="236" y="708" type="curve" smooth="yes"/>
			<point x="207" y="708"/>
			<point x="177" y="695"/>
			<point x="154" y="674" type="curve"/>
			<point x="158" y="721" type="line"/>
			<point x="158" y="828" type="line"/>
			<point x="38" y="828" type="line"/>
			<point x="38" y="368" type="line"/>
			<point x="130" y="368" type="line"/>
			<point x="140" y="404" type="line"/>
			<point x="144" y="404" type="line"/>
			<point x="166" y="374"/>
			<point x="198" y="360"/>
		</contour>
		<contour>
			<point x="198" y="454" type="curve" smooth="yes"/>
			<point x="184" y="454"/>
			<point x="172" y="458"/>
			<point x="158" y="468" type="curve"/>
			<point x="158" y="590" type="line"/>
			<point x="172" y="606"/>
			<point x="184" y="612"/>
			<point x="200" y="612" type="curve" smooth="yes"/>
			<point x="228" y="612"/>
			<point x="244" y="592"/>
			<point x="244" y="538" type="curve" smooth="yes"/>
			<point x="244" y="476"/>
			<point x="222" y="454"/>
		</contour>
	</outline>
</glyph>
<glyph name="e.sups" format="2">
	<unicode hex="1D49"/>
	<advance width="350"/>
	<outline>
		<contour>
			<point x="196" y="360" type="curve" smooth="yes"/>
			<point x="240" y="360"/>
			<point x="280" y="374"/>
			<point x="318" y="400" type="curve"/>
			<point x="280" y="468" type="line"/>
			<point x="256" y="454"/>
			<point x="234" y="450"/>
			<point x="208" y="450" type="curve" smooth="yes"/>
			<point x="164" y="450"/>
			<point x="132" y="474"/>
			<point x="132" y="534" type="curve" smooth="yes"/>
			<point x="132" y="598"/>
			<point x="152" y="618"/>
			<point x="184" y="618" type="curve" smooth="yes"/>
			<point x="216" y="618"/>
			<point x="232" y="600"/>
			<point x="232" y="550" type="curve"/>
			<point x="258" y="568" type="line"/>
			<point x="108" y="568" type="line"/>
			<point x="108" y="502" type="line"/>
			<point x="324" y="502" type="line"/>
			<point x="326" y="510"/>
			<point x="330" y="526"/>
			<point x="330" y="546" type="curve" smooth="yes"/>
			<point x="330" y="634"/>
			<point x="283" y="708"/>
			<point x="184" y="708" type="curve" smooth="yes"/>
			<point x="98" y="708"/>
			<point x="22" y="638"/>
			<point x="22" y="534" type="curve" smooth="yes"/>
			<point x="22" y="426"/>
			<point x="98" y="360"/>
		</contour>
	</outline>
</glyph>
<glyph name="k.sups" format="2">
	<unicode hex="1D4F"/>
	<advance width="384"/>
	<outline>
		<contour>
			<point x="38" y="368" type="line"/>
			<point x="158" y="368" type="line"/>
			<point x="158" y="448" type="line"/>
			<point x="186" y="482" type="line"/>
			<point x="252" y="368" type="line"/>
			<point x="380" y="368" type="line"/>
			<point x="252" y="558" type="line"/>
			<point x="374" y="700" type="line"/>
			<point x="246" y="700" type="line"/>
			<point x="162" y="586" type="line"/>
			<point x="158" y="586" type="line"/>
			<point x="158" y="828" type="line"/>
			<point x="38" y="828" type="line"/>
		</contour>
	</outline>
</glyph>
<glyph name="eng.sups" format="2">
	<unicode hex="1D51"/>
	<advance width="390"/>
	<outline>
		<contour>
			<point x="224" y="236" type="curve" smooth="yes"/>
			<point x="326" y="236"/>
			<point x="356" y="306"/>
			<point x="356" y="380" type="curve" smooth="yes"/>
			<point x="356" y="570" type="line" smooth="yes"/>
			<point x="356" y="654"/>
			<point x="326" y="708"/>
			<point x="251" y="708" type="curve" smooth="yes"/>
			<point x="206" y="708"/>
			<point x="172" y="684"/>
			<point x="146" y="658" type="curve"/>
			<point x="144" y="658" type="line"/>
			<point x="134" y="700" type="line"/>
			<point x="38" y="700" type="line"/>
			<point x="38" y="368" type="line"/>
			<point x="158" y="368" type="line"/>
			<point x="158" y="583" type="line"/>
			<point x="174" y="598"/>
			<point x="186" y="608"/>
			<point x="204" y="608" type="curve" smooth="yes"/>
			<point x="232" y="608"/>
			<point x="236" y="592"/>
			<point x="236" y="556" type="curve" smooth="yes"/>
			<point x="236" y="376" type="line" smooth="yes"/>
			<point x="236" y="340"/>
			<point x="229" y="328"/>
			<point x="206" y="328" type="curve" smooth="yes"/>
			<point x="195" y="328"/>
			<point x="186" y="330"/>
			<point x="180" y="332" type="curve"/>
			<point x="160" y="244" type="line"/>
			<point x="174" y="240"/>
			<point x="192" y="236"/>
		</contour>
	</outline>
	<anchor name="aboveLC" x="210" y="712"/>
</glyph>
<glyph name="v.sups" format="2">
	<unicode hex="1D5B"/>
	<advance width="368"/>
	<outline>
		<contour>
			<point x="116" y="368" type="line"/>
			<point x="254" y="368" type="line"/>
			<point x="360" y="700" type="line"/>
			<point x="246" y="700" type="line"/>
			<point x="212" y="558" type="line"/>
			<point x="188" y="454" type="line"/>
			<point x="186" y="454" type="line"/>
			<point x="160" y="558" type="line"/>
			<point x="126" y="700" type="line"/>
			<point x="8" y="700" type="line"/>
		</contour>
	</outline>
</glyph>
<glyph name="c.sups" format="2">
	<unicode hex="1D9C"/>
	<advance width="316"/>
	<outline>
		<contour>
			<point x="188" y="360" type="curve" smooth="yes"/>
			<point x="242" y="360"/>
			<point x="282" y="380"/>
			<point x="304" y="398" type="curve"/>
			<point x="256" y="474" type="line"/>
			<point x="244" y="464"/>
			<point x="230" y="454"/>
			<point x="204" y="454" type="curve" smooth="yes"/>
			<point x="168" y="454"/>
			<point x="144" y="486"/>
			<point x="144" y="534" type="curve" smooth="yes"/>
			<point x="144" y="582"/>
			<point x="170" y="614"/>
			<point x="206" y="614" type="curve" smooth="yes"/>
			<point x="220" y="614"/>
			<point x="234" y="608"/>
			<point x="246" y="598" type="curve"/>
			<point x="300" y="674" type="line"/>
			<point x="284" y="690"/>
			<point x="246" y="708"/>
			<point x="194" y="708" type="curve" smooth="yes"/>
			<point x="102" y="708"/>
			<point x="22" y="642"/>
			<point x="22" y="534" type="curve" smooth="yes"/>
			<point x="22" y="424"/>
			<point x="92" y="360"/>
		</contour>
	</outline>
</glyph>
<glyph name="nhookleft.sups" format="2">
	<unicode hex="1DAE"/>
	<advance width="392"/>
	<outline>
		<contour>
			<point x="54" y="236" type="curve" smooth="yes"/>
			<point x="134" y="236"/>
			<point x="160" y="288"/>
			<point x="160" y="364" type="curve" smooth="yes"/>
			<point x="160" y="583" type="line"/>
			<point x="176" y="598"/>
			<point x="188" y="608"/>
			<point x="206" y="608" type="curve" smooth="yes"/>
			<point x="234" y="608"/>
			<point x="238" y="592"/>
			<point x="238" y="556" type="curve" smooth="yes"/>
			<point x="238" y="368" type="line"/>
			<point x="358" y="368" type="line"/>
			<point x="358" y="570" type="line" smooth="yes"/>
			<point x="358" y="654"/>
			<point x="328" y="708"/>
			<point x="253" y="708" type="curve" smooth="yes"/>
			<point x="208" y="708"/>
			<point x="174" y="684"/>
			<point x="148" y="658" type="curve"/>
			<point x="146" y="658" type="line"/>
			<point x="136" y="700" type="line"/>
			<point x="40" y="700" type="line"/>
			<point x="40" y="360" type="line" smooth="yes"/>
			<point x="40" y="338"/>
			<point x="32" y="330"/>
			<point x="22" y="330" type="curve" smooth="yes"/>
			<point x="18" y="330"/>
			<point x="16" y="330"/>
			<point x="10" y="332" type="curve"/>
			<point x="-4" y="246" type="line"/>
			<point x="10" y="240"/>
			<point x="26" y="236"/>
		</contour>
	</outline>
</glyph>
<glyph name="z.sups" format="2">
	<unicode hex="1DBB"/>
	<advance width="320"/>
	<outline>
		<contour>
			<point x="26" y="368" type="line"/>
			<point x="304" y="368" type="line"/>
			<point x="304" y="460" type="line"/>
			<point x="175" y="460" type="line"/>
			<point x="300" y="636" type="line"/>
			<point x="300" y="700" type="line"/>
			<point x="42" y="700" type="line"/>
			<point x="42" y="608" type="line"/>
			<point x="152" y="608" type="line"/>
			<point x="26" y="432" type="line"/>
		</contour>
	</outline>
</glyph>
<glyph name="theta.sups" format="2">
	<unicode hex="1DBF"/>
	<advance width="376"/>
	<outline>
		<contour>
			<point x="188" y="360" type="curve" smooth="yes"/>
			<point x="274" y="360"/>
			<point x="354" y="418"/>
			<point x="354" y="602" type="curve" smooth="yes"/>
			<point x="354" y="784"/>
			<point x="274" y="844"/>
			<point x="188" y="844" type="curve" smooth="yes"/>
			<point x="102" y="844"/>
			<point x="22" y="784"/>
			<point x="22" y="602" type="curve" smooth="yes"/>
			<point x="22" y="418"/>
			<point x="102" y="360"/>
		</contour>
		<contour>
			<point x="188" y="454" type="curve" smooth="yes"/>
			<point x="155" y="454"/>
			<point x="144" y="490"/>
			<point x="144" y="602" type="curve" smooth="yes"/>
			<point x="144" y="712"/>
			<point x="155" y="750"/>
			<point x="188" y="750" type="curve" smooth="yes"/>
			<point x="221" y="750"/>
			<point x="232" y="712"/>
			<point x="232" y="602" type="curve" smooth="yes"/>
			<point x="232" y="490"/>
			<point x="221" y="454"/>
		</contour>
		<contour>
			<point x="74" y="558" type="line"/>
			<point x="293" y="558" type="line"/>
			<point x="293" y="650" type="line"/>
			<point x="74" y="650" type="line"/>
		</contour>
	</outline>
	<guideline x="248" y="844" angle="0" identifier="W0nfnWCML6"/>
</glyph>
<glyph name="circumflexdoublecmb" format="2">
	<unicode hex="1DCD"/>
	<outline>
		<contour>
			<point x="-414" y="530" type="line"/>
			<point x="0" y="622" type="line"/>
			<point x="414" y="530" type="line"/>
			<point x="458" y="608" type="line"/>
			<point x="60" y="730" type="line"/>
			<point x="-60" y="730" type="line"/>
			<point x="-458" y="608" type="line"/>
		</contour>
	</outline>
</glyph>
<glyph name="n.sups" format="2">
	<unicode hex="207F"/>
	<advance width="390"/>
	<outline>
		<contour>
			<point x="38" y="368" type="line"/>
			<point x="158" y="368" type="line"/>
			<point x="158" y="583" type="line"/>
			<point x="174" y="598"/>
			<point x="186" y="608"/>
			<point x="204" y="608" type="curve" smooth="yes"/>
			<point x="232" y="608"/>
			<point x="236" y="592"/>
			<point x="236" y="556" type="curve" smooth="yes"/>
			<point x="236" y="368" type="line"/>
			<point x="356" y="368" type="line"/>
			<point x="356" y="570" type="line" smooth="yes"/>
			<point x="356" y="654"/>
			<point x="326" y="708"/>
			<point x="251" y="708" type="curve" smooth="yes"/>
			<point x="206" y="708"/>
			<point x="172" y="684"/>
			<point x="146" y="658" type="curve"/>
			<point x="144" y="658" type="line"/>
			<point x="134" y="700" type="line"/>
			<point x="38" y="700" type="line"/>
		</contour>
	</outline>
</glyph>
<glyph name="minus.subs" format="2">
	<unicode hex="208B"/>
	<advance width="380"/>
	<outline>
		<contour>
			<point x="24" y="-40" type="line"/>
			<point x="356" y="-40" type="line"/>
			<point x="356" y="56" type="line"/>
			<point x="24" y="56" type="line"/>
		</contour>
	</outline>
</glyph>
<glyph name="peseta" format="2">
	<unicode hex="20A7"/>
	<advance width="540"/>
	<outline>
		<contour>
			<point x="58" y="0" type="line"/>
			<point x="220" y="0" type="line"/>
			<point x="220" y="200" type="line"/>
			<point x="250" y="200" type="line" smooth="yes"/>
			<point x="371" y="200"/>
			<point x="480" y="268"/>
			<point x="480" y="414" type="curve" smooth="yes"/>
			<point x="480" y="578"/>
			<point x="375" y="634"/>
			<point x="250" y="634" type="curve" smooth="yes"/>
			<point x="58" y="634" type="line"/>
		</contour>
		<contour>
			<point x="220" y="306" type="line"/>
			<point x="220" y="528" type="line"/>
			<point x="242" y="528" type="line" smooth="yes"/>
			<point x="294" y="528"/>
			<point x="322" y="492"/>
			<point x="322" y="414" type="curve" smooth="yes"/>
			<point x="322" y="350"/>
			<point x="294" y="306"/>
			<point x="242" y="306" type="curve" smooth="yes"/>
		</contour>
		<contour>
			<point x="0" y="366" type="line"/>
			<point x="532" y="366" type="line"/>
			<point x="532" y="470" type="line"/>
			<point x="76" y="470" type="line"/>
			<point x="0" y="464" type="line"/>
		</contour>
	</outline>
</glyph>
<glyph name="cedi" format="2">
	<unicode hex="20B5"/>
	<advance width="540"/>
	<outline>
		<contour>
			<point x="334" y="-12" type="curve" smooth="yes"/>
			<point x="410" y="-12"/>
			<point x="477" y="20"/>
			<point x="530" y="80" type="curve"/>
			<point x="436" y="168" type="line"/>
			<point x="411" y="138"/>
			<point x="382" y="120"/>
			<point x="344" y="120" type="curve" smooth="yes"/>
			<point x="268" y="120"/>
			<point x="224" y="190"/>
			<point x="224" y="318" type="curve" smooth="yes"/>
			<point x="224" y="442"/>
			<point x="266" y="514"/>
			<point x="348" y="514" type="curve" smooth="yes"/>
			<point x="382" y="514"/>
			<point x="406" y="500"/>
			<point x="428" y="476" type="curve"/>
			<point x="522" y="568" type="line"/>
			<point x="476" y="620"/>
			<point x="414" y="646"/>
			<point x="354" y="646" type="curve" smooth="yes"/>
			<point x="178" y="646"/>
			<point x="52" y="524"/>
			<point x="52" y="312" type="curve" smooth="yes"/>
			<point x="52" y="97"/>
			<point x="174" y="-12"/>
		</contour>
		<contour>
			<point x="290" y="-110" type="line"/>
			<point x="382" y="-110" type="line"/>
			<point x="382" y="732" type="line"/>
			<point x="290" y="732" type="line"/>
		</contour>
	</outline>
</glyph>
<glyph name="liraturkish" format="2">
	<unicode hex="20BA"/>
	<advance width="540"/>
	<outline>
		<contour>
			<point x="80" y="-12" type="line"/>
			<point x="362" y="-20"/>
			<point x="512" y="84"/>
			<point x="512" y="271" type="curve" smooth="yes"/>
			<point x="512" y="280"/>
			<point x="510" y="301"/>
			<point x="505" y="320" type="curve"/>
			<point x="364" y="288" type="line"/>
			<point x="366" y="275"/>
			<point x="366" y="267"/>
			<point x="366" y="264" type="curve" smooth="yes"/>
			<point x="366" y="206"/>
			<point x="320" y="157"/>
			<point x="252" y="148" type="curve"/>
			<point x="252" y="634" type="line"/>
			<point x="80" y="634" type="line"/>
		</contour>
		<contour>
			<point x="32" y="176" type="line"/>
			<point x="98" y="212" type="line"/>
			<point x="244" y="280" type="line"/>
			<point x="414" y="370" type="line"/>
			<point x="378" y="442" type="line"/>
			<point x="244" y="370" type="line"/>
			<point x="98" y="302" type="line"/>
			<point x="-4" y="248" type="line"/>
		</contour>
		<contour>
			<point x="32" y="316" type="line"/>
			<point x="98" y="352" type="line"/>
			<point x="244" y="420" type="line"/>
			<point x="414" y="510" type="line"/>
			<point x="378" y="582" type="line"/>
			<point x="244" y="510" type="line"/>
			<point x="98" y="442" type="line"/>
			<point x="-4" y="388" type="line"/>
		</contour>
	</outline>
</glyph>
<glyph name="prescription" format="2">
	<unicode hex="211E"/>
	<advance width="760"/>
	<outline>
		<contour>
			<point x="72" y="0" type="line"/>
			<point x="244" y="0" type="line"/>
			<point x="244" y="218" type="line"/>
			<point x="318" y="218" type="line" smooth="yes"/>
			<point x="458" y="218"/>
			<point x="578" y="283"/>
			<point x="578" y="440" type="curve" smooth="yes"/>
			<point x="578" y="602"/>
			<point x="458" y="650"/>
			<point x="318" y="650" type="curve" smooth="yes"/>
			<point x="72" y="650" type="line"/>
		</contour>
		<contour>
			<point x="244" y="354" type="line"/>
			<point x="244" y="514" type="line"/>
			<point x="306" y="514" type="line" smooth="yes"/>
			<point x="374" y="514"/>
			<point x="410" y="496"/>
			<point x="410" y="440" type="curve" smooth="yes"/>
			<point x="410" y="384"/>
			<point x="374" y="354"/>
			<point x="306" y="354" type="curve" smooth="yes"/>
		</contour>
		<contour>
			<point x="272" y="-176" type="line"/>
			<point x="450" y="-176" type="line"/>
			<point x="466" y="-136" type="line"/>
			<point x="478" y="-108"/>
			<point x="486" y="-80"/>
			<point x="496" y="-52" type="curve"/>
			<point x="500" y="-52" type="line"/>
			<point x="516" y="-80"/>
			<point x="533" y="-108"/>
			<point x="548" y="-136" type="curve"/>
			<point x="570" y="-176" type="line"/>
			<point x="754" y="-176" type="line"/>
			<point x="622" y="34" type="line"/>
			<point x="754" y="264" type="line"/>
			<point x="576" y="264" type="line"/>
			<point x="562" y="224" type="line"/>
			<point x="553" y="197"/>
			<point x="545" y="167"/>
			<point x="536" y="140" type="curve"/>
			<point x="532" y="140" type="line"/>
			<point x="518" y="168"/>
			<point x="506" y="196"/>
			<point x="490" y="224" type="curve"/>
			<point x="452" y="294" type="line"/>
			<point x="268" y="294" type="line"/>
			<point x="410" y="54" type="line"/>
		</contour>
	</outline>
</glyph>
<glyph name="trademark" format="2">
	<unicode hex="2122"/>
	<advance width="700"/>
	<outline>
		<contour>
			<point x="86" y="360" type="line"/>
			<point x="196" y="360" type="line"/>
			<point x="196" y="576" type="line"/>
			<point x="278" y="576" type="line"/>
			<point x="278" y="676" type="line"/>
			<point x="4" y="676" type="line"/>
			<point x="4" y="576" type="line"/>
			<point x="86" y="576" type="line"/>
		</contour>
		<contour>
			<point x="318" y="360" type="line"/>
			<point x="418" y="360" type="line"/>
			<point x="418" y="440" type="line"/>
			<point x="406" y="560" type="line"/>
			<point x="410" y="560" type="line"/>
			<point x="460" y="406" type="line"/>
			<point x="536" y="406" type="line"/>
			<point x="586" y="560" type="line"/>
			<point x="590" y="560" type="line"/>
			<point x="578" y="440" type="line"/>
			<point x="578" y="360" type="line"/>
			<point x="678" y="360" type="line"/>
			<point x="678" y="676" type="line"/>
			<point x="556" y="676" type="line"/>
			<point x="520" y="584" type="line"/>
			<point x="500" y="522" type="line"/>
			<point x="496" y="522" type="line"/>
			<point x="476" y="584" type="line"/>
			<point x="440" y="676" type="line"/>
			<point x="318" y="676" type="line"/>
		</contour>
	</outline>
</glyph>
<glyph name="arrowleft" format="2">
	<unicode hex="2190"/>
	<advance width="616"/>
	<outline>
		<contour>
			<point x="300" y="-18" type="line"/>
			<point x="380" y="74" type="line"/>
			<point x="250" y="184" type="line"/>
			<point x="576" y="184" type="line"/>
			<point x="576" y="320" type="line"/>
			<point x="250" y="320" type="line"/>
			<point x="380" y="430" type="line"/>
			<point x="300" y="522" type="line"/>
			<point x="20" y="254" type="line"/>
			<point x="20" y="250" type="line"/>
		</contour>
	</outline>
</glyph>
<glyph name="arrowdbldown" format="2">
	<unicode hex="21D3"/>
	<advance width="616"/>
	<outline>
		<contour>
			<point x="306" y="-26" type="line"/>
			<point x="310" y="-26" type="line"/>
			<point x="578" y="254" type="line"/>
			<point x="486" y="334" type="line"/>
			<point x="310" y="126" type="line"/>
			<point x="306" y="126" type="line"/>
			<point x="130" y="334" type="line"/>
			<point x="38" y="254" type="line"/>
		</contour>
		<contour>
			<point x="184" y="124" type="line"/>
			<point x="282" y="124" type="line"/>
			<point x="282" y="530" type="line"/>
			<point x="184" y="530" type="line"/>
		</contour>
		<contour>
			<point x="334" y="124" type="line"/>
			<point x="432" y="124" type="line"/>
			<point x="432" y="530" type="line"/>
			<point x="334" y="530" type="line"/>
		</contour>
	</outline>
</glyph>
<glyph name="Delta" format="2">
	<unicode hex="2206"/>
	<unicode hex="0394"/>
	<advance width="660"/>
	<outline>
		<contour>
			<point x="36" y="0" type="line"/>
			<point x="624" y="0" type="line"/>
			<point x="624" y="104" type="line"/>
			<point x="434" y="650" type="line"/>
			<point x="226" y="650" type="line"/>
			<point x="36" y="104" type="line"/>
		</contour>
		<contour>
			<point x="220" y="144" type="line"/>
			<point x="274" y="334" type="line"/>
			<point x="324" y="522" type="line"/>
			<point x="328" y="522" type="line"/>
			<point x="380" y="334" type="line"/>
			<point x="436" y="144" type="line"/>
		</contour>
	</outline>
	<anchor name="aboveUC" x="330" y="672"/>
</glyph>
<glyph name="floorright" format="2">
	<unicode hex="231F"/>
	<advance width="360"/>
	<outline>
		<contour>
			<point x="52" y="-58" type="line"/>
			<point x="276" y="-58" type="line"/>
			<point x="276" y="634" type="line"/>
			<point x="148" y="634" type="line"/>
			<point x="148" y="32" type="line"/>
			<point x="52" y="32" type="line"/>
		</contour>
	</outline>
</glyph>
<glyph name="integraltp" format="2">
	<unicode hex="2320"/>
	<advance width="412"/>
	<outline>
		<contour>
			<point x="134" y="0" type="line"/>
			<point x="288" y="0" type="line"/>
			<point x="288" y="750" type="line" smooth="yes"/>
			<point x="288" y="840"/>
			<point x="300" y="872"/>
			<point x="350" y="872" type="curve" smooth="yes"/>
			<point x="364" y="872"/>
			<point x="376" y="871"/>
			<point x="386" y="868" type="curve"/>
			<point x="402" y="992" type="line"/>
			<point x="390" y="995"/>
			<point x="366" y="1000"/>
			<point x="341" y="1000" type="curve" smooth="yes"/>
			<point x="168" y="1000"/>
			<point x="134" y="892"/>
			<point x="134" y="746" type="curve" smooth="yes"/>
		</contour>
	</outline>
</glyph>
<glyph name="trianglesmallrightwhite" format="2">
	<unicode hex="25B9"/>
	<advance width="360"/>
	<outline>
		<contour>
			<point x="0" y="52" type="line"/>
			<point x="4" y="52" type="line"/>
			<point x="380" y="260" type="line"/>
			<point x="380" y="264" type="line"/>
			<point x="4" y="472" type="line"/>
			<point x="0" y="472" type="line"/>
		</contour>
		<contour>
			<point x="80" y="190" type="line"/>
			<point x="80" y="334" type="line"/>
			<point x="226" y="262" type="line"/>
		</contour>
	</outline>
</glyph>
<glyph name="lozenge" format="2">
	<unicode hex="25CA"/>
	<advance width="560"/>
	<outline>
		<contour>
			<point x="212" y="-10" type="line"/>
			<point x="348" y="-10" type="line"/>
			<point x="510" y="330" type="line"/>
			<point x="348" y="670" type="line"/>
			<point x="212" y="670" type="line"/>
			<point x="50" y="330" type="line"/>
		</contour>
		<contour>
			<point x="278" y="134" type="line"/>
			<point x="228" y="250" type="line"/>
			<point x="190" y="330" type="line"/>
			<point x="228" y="410" type="line"/>
			<point x="278" y="526" type="line"/>
			<point x="282" y="526" type="line"/>
			<point x="332" y="410" type="line"/>
			<point x="370" y="330" type="line"/>
			<point x="332" y="250" type="line"/>
			<point x="282" y="134" type="line"/>
		</contour>
	</outline>
</glyph>
<glyph name="bracketangleleft" format="2">
	<unicode hex="27E8"/>
	<advance width="360"/>
	<outline>
		<contour>
			<point x="210" y="-180" type="line"/>
			<point x="308" y="-136" type="line"/>
			<point x="166" y="278" type="line"/>
			<point x="308" y="692" type="line"/>
			<point x="210" y="736" type="line"/>
			<point x="50" y="338" type="line"/>
			<point x="50" y="218" type="line"/>
		</contour>
	</outline>
</glyph>
<glyph name="bracketangleright" format="2">
	<unicode hex="27E9"/>
	<advance width="360"/>
	<outline>
		<contour>
			<point x="150" y="-180" type="line"/>
			<point x="310" y="218" type="line"/>
			<point x="310" y="338" type="line"/>
			<point x="150" y="736" type="line"/>
			<point x="52" y="692" type="line"/>
			<point x="194" y="278" type="line"/>
			<point x="52" y="-136" type="line"/>
		</contour>
	</outline>
</glyph>
<glyph name="Lbardbl" format="2">
	<unicode hex="2C60"/>
	<advance width="550"/>
	<outline>
		<contour>
			<point x="22" y="256" type="line"/>
			<point x="418" y="256" type="line"/>
			<point x="418" y="340" type="line"/>
			<point x="94" y="340" type="line"/>
			<point x="22" y="334" type="line"/>
		</contour>
		<contour>
			<point x="22" y="384" type="line"/>
			<point x="418" y="384" type="line"/>
			<point x="418" y="468" type="line"/>
			<point x="94" y="468" type="line"/>
			<point x="22" y="462" type="line"/>
		</contour>
		<component base="L" xOffset="20"/>
	</outline>
	<anchor name="aboveUC" x="180" y="672"/>
	<anchor name="belowLC" x="310" y="-22"/>
</glyph>
<glyph name="V.sups" format="2">
	<unicode hex="2C7D"/>
	<advance width="390"/>
	<outline>
		<contour>
			<point x="123" y="368" type="line"/>
			<point x="268" y="368" type="line"/>
			<point x="397" y="800" type="line"/>
			<point x="275" y="800" type="line"/>
			<point x="231" y="615" type="line" smooth="yes"/>
			<point x="220" y="570"/>
			<point x="211" y="526"/>
			<point x="199" y="478" type="curve"/>
			<point x="197" y="478" type="line"/>
			<point x="185" y="526"/>
			<point x="176" y="570"/>
			<point x="165" y="615" type="curve" smooth="yes"/>
			<point x="120" y="800" type="line"/>
			<point x="-7" y="800" type="line"/>
		</contour>
	</outline>
</glyph>
<glyph name="threeemdash" format="2">
	<unicode hex="2E3B"/>
	<advance width="2200"/>
	<outline>
		<contour>
			<point x="2156" y="308" type="line"/>
			<point x="44" y="308" type="line"/>
			<point x="44" y="200" type="line"/>
			<point x="2156" y="200" type="line"/>
		</contour>
	</outline>
</glyph>
<glyph name="OO" format="2">
	<unicode hex="A74E"/>
	<advance width="1040"/>
	<outline>
		<contour>
			<point x="312" y="-12" type="curve" smooth="yes"/>
			<point x="398" y="-12"/>
			<point x="486" y="20"/>
			<point x="538" y="148" type="curve"/>
			<point x="502" y="148" type="line"/>
			<point x="554" y="20"/>
			<point x="642" y="-12"/>
			<point x="726" y="-12" type="curve" smooth="yes"/>
			<point x="884" y="-12"/>
			<point x="996" y="114"/>
			<point x="996" y="328" type="curve" smooth="yes"/>
			<point x="996" y="541"/>
			<point x="884" y="662"/>
			<point x="726" y="662" type="curve" smooth="yes"/>
			<point x="642" y="662"/>
			<point x="554" y="630"/>
			<point x="502" y="502" type="curve"/>
			<point x="538" y="502" type="line"/>
			<point x="486" y="630"/>
			<point x="398" y="662"/>
			<point x="312" y="662" type="curve" smooth="yes"/>
			<point x="156" y="662"/>
			<point x="44" y="542"/>
			<point x="44" y="328" type="curve" smooth="yes"/>
			<point x="44" y="114"/>
			<point x="156" y="-12"/>
		</contour>
		<contour>
			<point x="334" y="136" type="curve" smooth="yes"/>
			<point x="260" y="136"/>
			<point x="220" y="210"/>
			<point x="220" y="328" type="curve" smooth="yes"/>
			<point x="220" y="446"/>
			<point x="260" y="514"/>
			<point x="334" y="514" type="curve" smooth="yes"/>
			<point x="400" y="514"/>
			<point x="440" y="446"/>
			<point x="440" y="328" type="curve" smooth="yes"/>
			<point x="440" y="210"/>
			<point x="400" y="136"/>
		</contour>
		<contour>
			<point x="706" y="136" type="curve" smooth="yes"/>
			<point x="640" y="136"/>
			<point x="600" y="210"/>
			<point x="600" y="328" type="curve" smooth="yes"/>
			<point x="600" y="446"/>
			<point x="640" y="514"/>
			<point x="706" y="514" type="curve" smooth="yes"/>
			<point x="780" y="514"/>
			<point x="820" y="446"/>
			<point x="820" y="328" type="curve" smooth="yes"/>
			<point x="820" y="210"/>
			<point x="780" y="136"/>
		</contour>
	</outline>
	<anchor name="aboveUC" x="520" y="672"/>
	<anchor name="belowLC" x="520" y="-22"/>
</glyph>
<glyph name="that" format="2">
	<unicode hex="A765"/>
	<advance width="580"/>
	<outline>
		<contour>
			<point x="58" y="-176" type="line"/>
			<point x="230" y="-176" type="line"/>
			<point x="230" y="-38" type="line"/>
			<point x="224" y="38" type="line"/>
			<point x="256" y="6"/>
			<point x="294" y="-12"/>
			<point x="336" y="-12" type="curve" smooth="yes"/>
			<point x="442" y="-12"/>
			<point x="544" y="82"/>
			<point x="544" y="235" type="curve" smooth="yes"/>
			<point x="544" y="370"/>
			<point x="467" y="462"/>
			<point x="349" y="462" type="curve" smooth="yes"/>
			<point x="305" y="462"/>
			<point x="261" y="444"/>
			<point x="226" y="412" type="curve"/>
			<point x="230" y="484" type="line"/>
			<point x="230" y="696" type="line"/>
			<point x="58" y="696" type="line"/>
		</contour>
		<contour>
			<point x="-8" y="518" type="line"/>
			<point x="394" y="518" type="line"/>
			<point x="394" y="630" type="line"/>
			<point x="68" y="630" type="line"/>
			<point x="-8" y="624" type="line"/>
		</contour>
		<contour>
			<point x="344" y="322"/>
			<point x="368" y="292"/>
			<point x="368" y="232" type="curve" smooth="yes"/>
			<point x="368" y="160"/>
			<point x="334" y="128"/>
			<point x="294" y="128" type="curve" smooth="yes"/>
			<point x="272" y="128"/>
			<point x="250" y="134"/>
			<point x="230" y="152" type="curve"/>
			<point x="230" y="286" type="line"/>
			<point x="252" y="312"/>
			<point x="272" y="322"/>
			<point x="298" y="322" type="curve" smooth="yes"/>
		</contour>
	</outline>
</glyph>
<glyph name="Tinsular" format="2">
	<unicode hex="A786"/>
	<advance width="564"/>
	<outline>
		<contour>
			<point x="334" y="-12" type="curve" smooth="yes"/>
			<point x="415" y="-12"/>
			<point x="486" y="18"/>
			<point x="544" y="82" type="curve"/>
			<point x="458" y="184" type="line"/>
			<point x="432" y="158"/>
			<point x="394" y="136"/>
			<point x="348" y="136" type="curve" smooth="yes"/>
			<point x="272" y="136"/>
			<point x="220" y="192"/>
			<point x="220" y="284" type="curve" smooth="yes"/>
			<point x="220" y="406"/>
			<point x="314" y="506"/>
			<point x="416" y="506" type="curve" smooth="yes"/>
			<point x="540" y="506" type="line"/>
			<point x="540" y="650" type="line"/>
			<point x="24" y="650" type="line"/>
			<point x="24" y="512" type="line"/>
			<point x="186" y="512" type="line"/>
			<point x="186" y="508" type="line"/>
			<point x="112" y="454"/>
			<point x="46" y="380"/>
			<point x="46" y="260" type="curve" smooth="yes"/>
			<point x="46" y="96"/>
			<point x="168" y="-12"/>
		</contour>
	</outline>
	<anchor name="aboveUC" x="300" y="672"/>
	<anchor name="belowLC" x="320" y="-22"/>
</glyph>
<glyph name="Chilatin" format="2">
	<unicode hex="A7B3"/>
	<advance width="568"/>
	<outline>
		<contour>
			<point x="0" y="-176" type="line"/>
			<point x="184" y="-176" type="line"/>
			<point x="232" y="-29" type="line" smooth="yes"/>
			<point x="246" y="15"/>
			<point x="260" y="58"/>
			<point x="274" y="109" type="curve"/>
			<point x="278" y="109" type="line"/>
			<point x="294" y="58"/>
			<point x="308" y="15"/>
			<point x="324" y="-29" type="curve" smooth="yes"/>
			<point x="376" y="-176" type="line"/>
			<point x="568" y="-176" type="line"/>
			<point x="392" y="238" type="line"/>
			<point x="558" y="650" type="line"/>
			<point x="374" y="650" type="line"/>
			<point x="336" y="515" type="line" smooth="yes"/>
			<point x="324" y="477"/>
			<point x="310" y="431"/>
			<point x="296" y="378" type="curve"/>
			<point x="292" y="378" type="line"/>
			<point x="274" y="431"/>
			<point x="260" y="477"/>
			<point x="246" y="515" type="curve" smooth="yes"/>
			<point x="202" y="650" type="line"/>
			<point x="10" y="650" type="line"/>
			<point x="176" y="248" type="line"/>
		</contour>
	</outline>
	<anchor name="aboveUC" x="290" y="672"/>
	<anchor name="belowLC" x="290" y="-182"/>
</glyph>
<glyph name="dzretroflex" format="2">
	<unicode hex="AB66"/>
	<advance width="910"/>
	<outline>
		<contour>
			<point x="230" y="-12" type="curve" smooth="yes"/>
			<point x="271" y="-12"/>
			<point x="313" y="13"/>
			<point x="346" y="46" type="curve"/>
			<point x="350" y="46" type="line"/>
			<point x="362" y="0" type="line"/>
			<point x="502" y="0" type="line"/>
			<point x="502" y="696" type="line"/>
			<point x="330" y="696" type="line"/>
			<point x="330" y="534" type="line"/>
			<point x="336" y="462" type="line"/>
			<point x="307" y="491"/>
			<point x="279" y="512"/>
			<point x="230" y="512" type="curve" smooth="yes"/>
			<point x="132" y="512"/>
			<point x="36" y="414"/>
			<point x="36" y="250" type="curve" smooth="yes"/>
			<point x="36" y="88"/>
			<point x="112" y="-12"/>
		</contour>
		<contour>
			<point x="276" y="128" type="curve" smooth="yes"/>
			<point x="236" y="128"/>
			<point x="212" y="162"/>
			<point x="212" y="252" type="curve" smooth="yes"/>
			<point x="212" y="340"/>
			<point x="240" y="372"/>
			<point x="272" y="372" type="curve" smooth="yes"/>
			<point x="291" y="372"/>
			<point x="312" y="365"/>
			<point x="330" y="348" type="curve"/>
			<point x="330" y="164" type="line"/>
			<point x="313" y="137"/>
			<point x="298" y="128"/>
		</contour>
		<contour>
			<point x="892" y="-188" type="curve" smooth="yes"/>
			<point x="929" y="-188"/>
			<point x="952" y="-182"/>
			<point x="972" y="-174" type="curve"/>
			<point x="942" y="-48" type="line"/>
			<point x="932" y="-52"/>
			<point x="925" y="-54"/>
			<point x="916" y="-54" type="curve" smooth="yes"/>
			<point x="887" y="-54"/>
			<point x="876" y="-37"/>
			<point x="876" y="10" type="curve"/>
			<point x="876" y="134" type="line"/>
			<point x="738" y="134" type="line"/>
			<point x="870" y="408" type="line"/>
			<point x="870" y="500" type="line"/>
			<point x="488" y="500" type="line"/>
			<point x="488" y="366" type="line"/>
			<point x="678" y="366" type="line"/>
			<point x="546" y="92" type="line"/>
			<point x="546" y="0" type="line"/>
			<point x="722" y="0" type="line"/>
			<point x="722" y="-4" type="line" smooth="yes"/>
			<point x="722" y="-90"/>
			<point x="764" y="-188"/>
		</contour>
	</outline>
	<anchor name="aboveUC" x="420" y="722"/>
	<anchor name="belowLC" x="530" y="-22"/>
</glyph>
<glyph name="commercemark" format="2">
	<unicode hex="1F16A"/>
	<advance width="700"/>
	<outline>
		<contour>
			<point x="22" y="360" type="line"/>
			<point x="122" y="360" type="line"/>
			<point x="122" y="440" type="line"/>
			<point x="110" y="560" type="line"/>
			<point x="114" y="560" type="line"/>
			<point x="164" y="406" type="line"/>
			<point x="240" y="406" type="line"/>
			<point x="290" y="560" type="line"/>
			<point x="294" y="560" type="line"/>
			<point x="282" y="440" type="line"/>
			<point x="282" y="360" type="line"/>
			<point x="382" y="360" type="line"/>
			<point x="382" y="676" type="line"/>
			<point x="260" y="676" type="line"/>
			<point x="224" y="584" type="line"/>
			<point x="204" y="522" type="line"/>
			<point x="200" y="522" type="line"/>
			<point x="180" y="584" type="line"/>
			<point x="144" y="676" type="line"/>
			<point x="22" y="676" type="line"/>
		</contour>
		<contour>
			<point x="598" y="348" type="curve" smooth="yes"/>
			<point x="643" y="348"/>
			<point x="681" y="364"/>
			<point x="710" y="398" type="curve"/>
			<point x="656" y="462" type="line"/>
			<point x="640" y="446"/>
			<point x="626" y="436"/>
			<point x="604" y="436" type="curve" smooth="yes"/>
			<point x="570" y="436"/>
			<point x="542" y="460"/>
			<point x="542" y="518" type="curve" smooth="yes"/>
			<point x="542" y="574"/>
			<point x="570" y="600"/>
			<point x="604" y="600" type="curve" smooth="yes"/>
			<point x="624" y="600"/>
			<point x="638" y="592"/>
			<point x="652" y="578" type="curve"/>
			<point x="705" y="643" type="line"/>
			<point x="683" y="669"/>
			<point x="645" y="688"/>
			<point x="596" y="688" type="curve" smooth="yes"/>
			<point x="511" y="688"/>
			<point x="430" y="624"/>
			<point x="430" y="514" type="curve" smooth="yes"/>
			<point x="430" y="404"/>
			<point x="508" y="348"/>
		</contour>
	</outline>
</glyph>
<glyph name="deposeemark" format="2">
	<unicode hex="1F16B"/>
	<advance width="744"/>
	<outline>
		<contour>
			<point x="22" y="360" type="line"/>
			<point x="122" y="360" type="line"/>
			<point x="122" y="440" type="line"/>
			<point x="110" y="560" type="line"/>
			<point x="114" y="560" type="line"/>
			<point x="164" y="406" type="line"/>
			<point x="240" y="406" type="line"/>
			<point x="290" y="560" type="line"/>
			<point x="294" y="560" type="line"/>
			<point x="282" y="440" type="line"/>
			<point x="282" y="360" type="line"/>
			<point x="382" y="360" type="line"/>
			<point x="382" y="676" type="line"/>
			<point x="260" y="676" type="line"/>
			<point x="224" y="584" type="line"/>
			<point x="204" y="522" type="line"/>
			<point x="200" y="522" type="line"/>
			<point x="180" y="584" type="line"/>
			<point x="144" y="676" type="line"/>
			<point x="22" y="676" type="line"/>
		</contour>
		<contour>
			<point x="444" y="360" type="line"/>
			<point x="576" y="360" type="line" smooth="yes"/>
			<point x="675" y="360"/>
			<point x="740" y="412"/>
			<point x="740" y="522" type="curve" smooth="yes"/>
			<point x="740" y="630"/>
			<point x="675" y="676"/>
			<point x="570" y="676" type="curve" smooth="yes"/>
			<point x="444" y="676" type="line"/>
		</contour>
		<contour>
			<point x="554" y="440" type="line"/>
			<point x="554" y="596" type="line"/>
			<point x="568" y="596" type="line" smooth="yes"/>
			<point x="605" y="596"/>
			<point x="628" y="582"/>
			<point x="628" y="522" type="curve" smooth="yes"/>
			<point x="628" y="460"/>
			<point x="605" y="440"/>
			<point x="568" y="440" type="curve" smooth="yes"/>
		</contour>
	</outline>
</glyph>
<glyph name="B.sc" format="2">
	<advance width="554"/>
	<outline>
		<contour>
			<point x="72" y="0" type="line"/>
			<point x="300" y="0" type="line" smooth="yes"/>
			<point x="421" y="0"/>
			<point x="524" y="44"/>
			<point x="524" y="155" type="curve" smooth="yes"/>
			<point x="524" y="226"/>
			<point x="486" y="266"/>
			<point x="408" y="280" type="curve"/>
			<point x="408" y="284" type="line"/>
			<point x="474" y="300"/>
			<point x="500" y="354"/>
			<point x="500" y="398" type="curve" smooth="yes"/>
			<point x="500" y="507"/>
			<point x="400" y="532"/>
			<point x="282" y="532" type="curve" smooth="yes"/>
			<point x="72" y="532" type="line"/>
		</contour>
		<contour>
			<point x="244" y="324" type="line"/>
			<point x="244" y="408" type="line"/>
			<point x="288" y="408" type="line" smooth="yes"/>
			<point x="326" y="408"/>
			<point x="344" y="398"/>
			<point x="344" y="370" type="curve" smooth="yes"/>
			<point x="344" y="340"/>
			<point x="328" y="324"/>
			<point x="288" y="324" type="curve" smooth="yes"/>
		</contour>
		<contour>
			<point x="244" y="124" type="line"/>
			<point x="244" y="218" type="line"/>
			<point x="292" y="218" type="line" smooth="yes"/>
			<point x="338" y="218"/>
			<point x="358" y="204"/>
			<point x="358" y="172" type="curve" smooth="yes"/>
			<point x="358" y="140"/>
			<point x="338" y="124"/>
			<point x="292" y="124" type="curve" smooth="yes"/>
		</contour>
	</outline>
	<anchor name="aboveUC" x="290" y="562"/>
	<anchor name="belowLC" x="300" y="-22"/>
</glyph>
<glyph name="Che.sc" format="2">
	<advance width="590"/>
	<outline>
		<contour>
			<point x="346" y="0" type="line"/>
			<point x="518" y="0" type="line"/>
			<point x="518" y="532" type="line"/>
			<point x="346" y="532" type="line"/>
			<point x="346" y="326" type="line"/>
			<point x="336" y="324"/>
			<point x="322" y="322"/>
			<point x="296" y="322" type="curve" smooth="yes"/>
			<point x="242" y="322"/>
			<point x="226" y="345"/>
			<point x="226" y="404" type="curve" smooth="yes"/>
			<point x="226" y="532" type="line"/>
			<point x="58" y="532" type="line"/>
			<point x="58" y="404" type="line" smooth="yes"/>
			<point x="58" y="246"/>
			<point x="140" y="190"/>
			<point x="276" y="190" type="curve" smooth="yes"/>
			<point x="306" y="190"/>
			<point x="324" y="192"/>
			<point x="346" y="196" type="curve"/>
		</contour>
	</outline>
</glyph>
<glyph name="Cstroke.sc" format="2">
	<advance width="526"/>
	<outline>
		<contour>
			<point x="250" y="-66" type="line"/>
			<point x="426" y="588" type="line"/>
			<point x="380" y="598" type="line"/>
			<point x="204" y="-56" type="line"/>
		</contour>
		<component base="C.sc"/>
	</outline>
	<anchor name="aboveUC" x="310" y="562"/>
	<anchor name="belowLC" x="310" y="-22"/>
</glyph>
<glyph name="Dje.sc" format="2">
	<advance width="624"/>
	<outline>
		<contour>
			<point x="420" y="-12" type="curve" smooth="yes"/>
			<point x="526" y="-12"/>
			<point x="590" y="40"/>
			<point x="590" y="146" type="curve" smooth="yes"/>
			<point x="590" y="273"/>
			<point x="480" y="320"/>
			<point x="382" y="320" type="curve" smooth="yes"/>
			<point x="356" y="320"/>
			<point x="340" y="318"/>
			<point x="318" y="314" type="curve"/>
			<point x="318" y="392" type="line"/>
			<point x="480" y="392" type="line"/>
			<point x="480" y="532" type="line"/>
			<point x="24" y="532" type="line"/>
			<point x="24" y="392" type="line"/>
			<point x="146" y="392" type="line"/>
			<point x="146" y="0" type="line"/>
			<point x="318" y="0" type="line"/>
			<point x="318" y="204" type="line"/>
			<point x="328" y="206"/>
			<point x="340" y="208"/>
			<point x="362" y="208" type="curve"/>
			<point x="403" y="208"/>
			<point x="426" y="187"/>
			<point x="426" y="154" type="curve" smooth="yes"/>
			<point x="426" y="134"/>
			<point x="413" y="120"/>
			<point x="398" y="120" type="curve" smooth="yes"/>
			<point x="394" y="120"/>
			<point x="392" y="120"/>
			<point x="384" y="122" type="curve"/>
			<point x="358" y="-4" type="line"/>
			<point x="376" y="-10"/>
			<point x="394" y="-12"/>
		</contour>
	</outline>
</glyph>
<glyph name="Eogonek.d" format="2">
	<advance width="556"/>
	<outline>
		<contour>
			<point x="308" y="-228" type="curve" smooth="yes"/>
			<point x="348" y="-228"/>
			<point x="398" y="-212"/>
			<point x="428" y="-190" type="curve"/>
			<point x="390" y="-94" type="line"/>
			<point x="380" y="-100"/>
			<point x="364" y="-108"/>
			<point x="348" y="-108" type="curve" smooth="yes"/>
			<point x="322" y="-108"/>
			<point x="306" y="-98"/>
			<point x="306" y="-74" type="curve" smooth="yes"/>
			<point x="306" y="-42"/>
			<point x="344" y="0"/>
			<point x="390" y="0" type="curve" smooth="yes"/>
			<point x="502" y="0" type="line"/>
			<point x="502" y="144" type="line"/>
			<point x="244" y="144" type="line"/>
			<point x="244" y="260" type="line"/>
			<point x="456" y="260" type="line"/>
			<point x="456" y="404" type="line"/>
			<point x="244" y="404" type="line"/>
			<point x="244" y="506" type="line"/>
			<point x="492" y="506" type="line"/>
			<point x="492" y="650" type="line"/>
			<point x="72" y="650" type="line"/>
			<point x="72" y="0" type="line"/>
			<point x="252" y="0" type="line"/>
			<point x="216" y="-20"/>
			<point x="172" y="-66"/>
			<point x="172" y="-126" type="curve" smooth="yes"/>
			<point x="172" y="-190"/>
			<point x="232" y="-228"/>
		</contour>
	</outline>
	<anchor name="aboveUC" x="290" y="672"/>
	<anchor name="belowLC" x="300" y="-222"/>
</glyph>
<glyph name="Eogonek.sc" format="2">
	<advance width="508"/>
	<outline>
		<contour>
			<point x="358" y="-228" type="curve" smooth="yes"/>
			<point x="398" y="-228"/>
			<point x="448" y="-212"/>
			<point x="478" y="-190" type="curve"/>
			<point x="440" y="-94" type="line"/>
			<point x="430" y="-100"/>
			<point x="414" y="-108"/>
			<point x="398" y="-108" type="curve" smooth="yes"/>
			<point x="372" y="-108"/>
			<point x="356" y="-98"/>
			<point x="356" y="-74" type="curve" smooth="yes"/>
			<point x="356" y="-41"/>
			<point x="394" y="0"/>
			<point x="440" y="0" type="curve" smooth="yes"/>
			<point x="454" y="0" type="line"/>
			<point x="454" y="132" type="line"/>
			<point x="244" y="132" type="line"/>
			<point x="244" y="206" type="line"/>
			<point x="416" y="206" type="line"/>
			<point x="416" y="330" type="line"/>
			<point x="244" y="330" type="line"/>
			<point x="244" y="400" type="line"/>
			<point x="444" y="400" type="line"/>
			<point x="444" y="532" type="line"/>
			<point x="72" y="532" type="line"/>
			<point x="72" y="0" type="line"/>
			<point x="302" y="0" type="line"/>
			<point x="266" y="-20"/>
			<point x="222" y="-66"/>
			<point x="222" y="-126" type="curve" smooth="yes"/>
			<point x="222" y="-190"/>
			<point x="282" y="-228"/>
		</contour>
	</outline>
	<anchor name="aboveUC" x="270" y="562"/>
	<anchor name="belowLC" x="280" y="-222"/>
</glyph>
<glyph name="Eth.sc" format="2">
	<advance width="610"/>
	<outline>
		<contour>
			<point x="22" y="214" type="line"/>
			<point x="344" y="214" type="line"/>
			<point x="344" y="326" type="line"/>
			<point x="98" y="326" type="line"/>
			<point x="22" y="320" type="line"/>
		</contour>
		<component base="D.sc" xOffset="20"/>
	</outline>
	<anchor name="aboveUC" x="320" y="562"/>
	<anchor name="belowLC" x="310" y="-22"/>
</glyph>
<glyph name="Ghestroke.sc" format="2">
	<advance width="508"/>
	<outline>
		<contour>
			<point x="24" y="182" type="line"/>
			<point x="386" y="182" type="line"/>
			<point x="386" y="294" type="line"/>
			<point x="100" y="294" type="line"/>
			<point x="24" y="288" type="line"/>
		</contour>
		<component base="Ghe.sc" xOffset="26"/>
	</outline>
</glyph>
<glyph name="H.sc" format="2">
	<advance width="632"/>
	<outline>
		<contour>
			<point x="72" y="0" type="line"/>
			<point x="244" y="0" type="line"/>
			<point x="244" y="196" type="line"/>
			<point x="388" y="196" type="line"/>
			<point x="388" y="0" type="line"/>
			<point x="560" y="0" type="line"/>
			<point x="560" y="532" type="line"/>
			<point x="388" y="532" type="line"/>
			<point x="388" y="344" type="line"/>
			<point x="244" y="344" type="line"/>
			<point x="244" y="532" type="line"/>
			<point x="72" y="532" type="line"/>
		</contour>
	</outline>
	<anchor name="aboveUC" x="316" y="562"/>
	<anchor name="belowLC" x="316" y="-22"/>
</glyph>
<glyph name="Iogonek.as" format="2">
	<advance width="416"/>
	<outline>
		<contour>
			<point x="218" y="-228" type="curve" smooth="yes"/>
			<point x="258" y="-228"/>
			<point x="308" y="-212"/>
			<point x="338" y="-190" type="curve"/>
			<point x="300" y="-94" type="line"/>
			<point x="290" y="-100"/>
			<point x="274" y="-108"/>
			<point x="258" y="-108" type="curve" smooth="yes"/>
			<point x="232" y="-108"/>
			<point x="216" y="-98"/>
			<point x="216" y="-74" type="curve" smooth="yes"/>
			<point x="216" y="-42"/>
			<point x="254" y="0"/>
			<point x="300" y="0" type="curve" smooth="yes"/>
			<point x="362" y="0" type="line"/>
			<point x="362" y="134" type="line"/>
			<point x="294" y="134" type="line"/>
			<point x="294" y="398" type="line"/>
			<point x="362" y="398" type="line"/>
			<point x="362" y="532" type="line"/>
			<point x="54" y="532" type="line"/>
			<point x="54" y="398" type="line"/>
			<point x="122" y="398" type="line"/>
			<point x="122" y="134" type="line"/>
			<point x="54" y="134" type="line"/>
			<point x="54" y="0" type="line"/>
			<point x="162" y="0" type="line"/>
			<point x="126" y="-20"/>
			<point x="82" y="-66"/>
			<point x="82" y="-126" type="curve" smooth="yes"/>
			<point x="82" y="-190"/>
			<point x="142" y="-228"/>
		</contour>
	</outline>
	<anchor name="aboveUC" x="210" y="562"/>
</glyph>
<glyph name="Ka.as" format="2">
	<advance width="570"/>
	<outline>
		<contour>
			<point x="72" y="0" type="line"/>
			<point x="244" y="0" type="line"/>
			<point x="244" y="202" type="line"/>
			<point x="286" y="202" type="line"/>
			<point x="398" y="0" type="line"/>
			<point x="580" y="0" type="line"/>
			<point x="410" y="280" type="line"/>
			<point x="548" y="532" type="line"/>
			<point x="368" y="532" type="line"/>
			<point x="282" y="338" type="line"/>
			<point x="244" y="338" type="line"/>
			<point x="244" y="532" type="line"/>
			<point x="72" y="532" type="line"/>
		</contour>
	</outline>
	<anchor name="aboveUC" x="310" y="562"/>
</glyph>
<glyph name="Kadescender.as" format="2">
	<advance width="630"/>
	<outline>
		<contour>
			<point x="458" y="-172" type="line"/>
			<point x="606" y="-172" type="line"/>
			<point x="622" y="24" type="line"/>
			<point x="622" y="142" type="line"/>
			<point x="430" y="142" type="line"/>
			<point x="430" y="0" type="line"/>
			<point x="458" y="0" type="line"/>
		</contour>
		<component base="Ka.as"/>
	</outline>
</glyph>
<glyph name="Kai.sc" format="2">
	<advance width="570"/>
	<outline>
		<contour>
			<point x="72" y="0" type="line"/>
			<point x="244" y="0" type="line"/>
			<point x="244" y="140" type="line"/>
			<point x="384" y="310" type="line"/>
			<point x="548" y="532" type="line"/>
			<point x="364" y="532" type="line"/>
			<point x="248" y="358" type="line"/>
			<point x="244" y="358" type="line"/>
			<point x="244" y="532" type="line"/>
			<point x="72" y="532" type="line"/>
		</contour>
		<contour>
			<point x="226" y="-188" type="curve" smooth="yes"/>
			<point x="420" y="-188"/>
			<point x="558" y="-102"/>
			<point x="558" y="86" type="curve" smooth="yes"/>
			<point x="558" y="256"/>
			<point x="460" y="336"/>
			<point x="294" y="336" type="curve"/>
			<point x="274" y="202" type="line"/>
			<point x="342" y="202"/>
			<point x="388" y="160"/>
			<point x="388" y="84" type="curve" smooth="yes"/>
			<point x="388" y="-4"/>
			<point x="316" y="-54"/>
			<point x="216" y="-54" type="curve" smooth="yes"/>
			<point x="172" y="-54"/>
			<point x="116" y="-40"/>
			<point x="78" y="-22" type="curve"/>
			<point x="28" y="-140" type="line"/>
			<point x="84" y="-174"/>
			<point x="154" y="-188"/>
		</contour>
	</outline>
</glyph>
<glyph name="Lambdabar.sc" format="2">
	<advance width="488"/>
	<outline>
		<contour>
			<point x="14" y="382" type="line"/>
			<point x="474" y="382" type="line"/>
			<point x="474" y="494" type="line"/>
			<point x="108" y="494" type="line"/>
			<point x="14" y="488" type="line"/>
		</contour>
		<component base="Lambda.ls"/>
	</outline>
	<anchor name="aboverightUC" x="390" y="562"/>
	<anchor name="aboveUC" x="250" y="562"/>
	<anchor name="belowLC" x="250" y="-22"/>
</glyph>
<glyph name="Lslash.sc" format="2">
	<advance width="506"/>
	<outline>
		<contour>
			<point x="30" y="128" type="line"/>
			<point x="122" y="168" type="line"/>
			<point x="256" y="228" type="line"/>
			<point x="452" y="316" type="line"/>
			<point x="404" y="420" type="line"/>
			<point x="256" y="354" type="line"/>
			<point x="122" y="294" type="line"/>
			<point x="-18" y="232" type="line"/>
		</contour>
		<component base="L.sc" xOffset="30"/>
	</outline>
	<anchor name="aboveUC" x="190" y="562"/>
	<anchor name="belowLC" x="300" y="-22"/>
</glyph>
<glyph name="Oslash.sc" format="2">
	<advance width="626"/>
	<outline>
		<contour>
			<point x="314" y="-12" type="curve" smooth="yes"/>
			<point x="472" y="-12"/>
			<point x="582" y="92"/>
			<point x="582" y="268" type="curve" smooth="yes"/>
			<point x="582" y="446"/>
			<point x="472" y="544"/>
			<point x="314" y="544" type="curve" smooth="yes"/>
			<point x="154" y="544"/>
			<point x="44" y="446"/>
			<point x="44" y="268" type="curve" smooth="yes"/>
			<point x="44" y="92"/>
			<point x="154" y="-12"/>
		</contour>
		<contour>
			<point x="314" y="118" type="curve" smooth="yes"/>
			<point x="248" y="118"/>
			<point x="210" y="176"/>
			<point x="210" y="268" type="curve" smooth="yes"/>
			<point x="210" y="362"/>
			<point x="248" y="414"/>
			<point x="314" y="414" type="curve" smooth="yes"/>
			<point x="378" y="414"/>
			<point x="416" y="362"/>
			<point x="416" y="268" type="curve" smooth="yes"/>
			<point x="416" y="176"/>
			<point x="378" y="118"/>
		</contour>
		<contour>
			<point x="110" y="-26" type="line"/>
			<point x="578" y="510" type="line"/>
			<point x="516" y="558" type="line"/>
			<point x="48" y="22" type="line"/>
		</contour>
	</outline>
	<anchor name="aboveUC" x="310" y="562"/>
	<anchor name="belowLC" x="310" y="-22"/>
</glyph>
<glyph name="Rinsular.x" format="2">
	<advance width="630"/>
	<outline>
		<contour>
			<point x="72" y="0" type="line"/>
			<point x="244" y="0" type="line"/>
			<point x="244" y="438" type="line"/>
			<point x="274" y="491"/>
			<point x="322" y="514"/>
			<point x="358" y="514" type="curve" smooth="yes"/>
			<point x="397" y="514"/>
			<point x="420" y="495"/>
			<point x="420" y="450" type="curve" smooth="yes"/>
			<point x="420" y="394"/>
			<point x="380" y="334"/>
			<point x="270" y="268" type="curve"/>
			<point x="270" y="264" type="line"/>
			<point x="432" y="0" type="line"/>
			<point x="614" y="0" type="line"/>
			<point x="448" y="242" type="line"/>
			<point x="540" y="322"/>
			<point x="588" y="380"/>
			<point x="588" y="488" type="curve" smooth="yes"/>
			<point x="588" y="606"/>
			<point x="519" y="662"/>
			<point x="410" y="662" type="curve" smooth="yes"/>
			<point x="344" y="662"/>
			<point x="288" y="638"/>
			<point x="238" y="584" type="curve"/>
			<point x="238" y="650" type="line"/>
			<point x="72" y="650" type="line"/>
		</contour>
	</outline>
</glyph>
<glyph name="Sigmoid.sc" format="2">
	<advance width="514"/>
	<outline>
		<contour>
			<point x="256" y="-12" type="curve" smooth="yes"/>
			<point x="397" y="-12"/>
			<point x="480" y="65"/>
			<point x="480" y="166" type="curve" smooth="yes"/>
			<point x="480" y="252"/>
			<point x="426" y="290"/>
			<point x="338" y="322" type="curve" smooth="yes"/>
			<point x="288" y="340" type="line" smooth="yes"/>
			<point x="254" y="352"/>
			<point x="234" y="362"/>
			<point x="234" y="382" type="curve" smooth="yes"/>
			<point x="234" y="402"/>
			<point x="248" y="412"/>
			<point x="273" y="412" type="curve" smooth="yes"/>
			<point x="314" y="412"/>
			<point x="358" y="394"/>
			<point x="398" y="368" type="curve"/>
			<point x="476" y="470" type="line"/>
			<point x="424" y="516"/>
			<point x="354" y="545"/>
			<point x="277" y="545" type="curve" smooth="yes"/>
			<point x="147" y="545"/>
			<point x="62" y="476"/>
			<point x="62" y="372" type="curve" smooth="yes"/>
			<point x="62" y="314"/>
			<point x="94" y="272"/>
			<point x="134" y="250" type="curve"/>
			<point x="134" y="246" type="line"/>
			<point x="80" y="226"/>
			<point x="36" y="186"/>
			<point x="36" y="134" type="curve" smooth="yes"/>
			<point x="36" y="42"/>
			<point x="125" y="-12"/>
		</contour>
		<contour>
			<point x="264" y="120" type="curve" smooth="yes"/>
			<point x="216" y="120"/>
			<point x="190" y="136"/>
			<point x="190" y="164" type="curve" smooth="yes"/>
			<point x="190" y="185"/>
			<point x="202" y="200"/>
			<point x="220" y="208" type="curve"/>
			<point x="264" y="190"/>
			<point x="308" y="181"/>
			<point x="308" y="150" type="curve" smooth="yes"/>
			<point x="308" y="132"/>
			<point x="294" y="120"/>
		</contour>
	</outline>
</glyph>
<glyph name="Soft.sc" format="2">
	<advance width="554"/>
	<outline>
		<contour>
			<point x="72" y="0" type="line"/>
			<point x="290" y="0" type="line" smooth="yes"/>
			<point x="412" y="0"/>
			<point x="520" y="42"/>
			<point x="520" y="184" type="curve" smooth="yes"/>
			<point x="520" y="314"/>
			<point x="412" y="362"/>
			<point x="290" y="362" type="curve" smooth="yes"/>
			<point x="244" y="362" type="line"/>
			<point x="244" y="532" type="line"/>
			<point x="72" y="532" type="line"/>
		</contour>
		<contour>
			<point x="244" y="134" type="line"/>
			<point x="244" y="246" type="line"/>
			<point x="282" y="246" type="line" smooth="yes"/>
			<point x="332" y="246"/>
			<point x="358" y="230"/>
			<point x="358" y="190" type="curve" smooth="yes"/>
			<point x="358" y="150"/>
			<point x="332" y="134"/>
			<point x="282" y="134" type="curve" smooth="yes"/>
		</contour>
	</outline>
</glyph>
<glyph name="They" format="2">
	<advance width="1104"/>
	<outline>
		<contour>
			<point x="424" y="-12" type="curve" smooth="yes"/>
			<point x="573" y="-12"/>
			<point x="638" y="78"/>
			<point x="638" y="240" type="curve" smooth="yes"/>
			<point x="638" y="420"/>
			<point x="598" y="546"/>
			<point x="582" y="650" type="curve"/>
			<point x="556" y="656"/>
			<point x="514" y="662"/>
			<point x="480" y="662" type="curve" smooth="yes"/>
			<point x="186" y="662"/>
			<point x="44" y="476"/>
			<point x="44" y="212" type="curve" smooth="yes"/>
			<point x="44" y="116"/>
			<point x="75" y="28"/>
			<point x="100" y="-8" type="curve"/>
			<point x="246" y="40" type="line"/>
			<point x="226" y="94"/>
			<point x="220" y="126"/>
			<point x="220" y="202" type="curve" smooth="yes"/>
			<point x="220" y="388"/>
			<point x="334" y="522"/>
			<point x="432" y="522" type="curve"/>
			<point x="444" y="458"/>
			<point x="462" y="376"/>
			<point x="462" y="198" type="curve" smooth="yes"/>
			<point x="462" y="135"/>
			<point x="451" y="118"/>
			<point x="422" y="118" type="curve" smooth="yes"/>
			<point x="406" y="118"/>
			<point x="396" y="126"/>
			<point x="396" y="142" type="curve" smooth="yes"/>
			<point x="396" y="168"/>
			<point x="408" y="199"/>
			<point x="628" y="200" type="curve" smooth="yes"/>
			<point x="956" y="202"/>
			<point x="1034" y="276"/>
			<point x="1034" y="378" type="curve" smooth="yes"/>
			<point x="1034" y="456"/>
			<point x="982" y="512"/>
			<point x="892" y="512" type="curve" smooth="yes"/>
			<point x="765" y="512"/>
			<point x="654" y="415"/>
			<point x="654" y="230" type="curve" smooth="yes"/>
			<point x="654" y="63"/>
			<point x="764" y="-12"/>
			<point x="904" y="-12" type="curve" smooth="yes"/>
			<point x="967" y="-12"/>
			<point x="1020" y="14"/>
			<point x="1052" y="38" type="curve"/>
			<point x="994" y="140" type="line"/>
			<point x="968" y="121"/>
			<point x="948" y="118"/>
			<point x="920" y="118" type="curve" smooth="yes"/>
			<point x="868" y="118"/>
			<point x="830" y="157"/>
			<point x="830" y="252" type="curve" smooth="yes"/>
			<point x="830" y="345"/>
			<point x="857" y="382"/>
			<point x="882" y="382" type="curve" smooth="yes"/>
			<point x="902" y="382"/>
			<point x="910" y="372"/>
			<point x="910" y="358" type="curve" smooth="yes"/>
			<point x="910" y="334"/>
			<point x="883" y="314"/>
			<point x="672" y="310" type="curve" smooth="yes"/>
			<point x="338" y="304"/>
			<point x="272" y="224"/>
			<point x="272" y="124" type="curve" smooth="yes"/>
			<point x="272" y="42"/>
			<point x="336" y="-12"/>
		</contour>
	</outline>
</glyph>
<glyph name="Tinsular.sc" format="2">
	<advance width="500"/>
	<outline>
		<contour>
			<point x="281" y="-12" type="curve" smooth="yes"/>
			<point x="360" y="-12"/>
			<point x="428" y="12"/>
			<point x="484" y="70" type="curve"/>
			<point x="396" y="166" type="line"/>
			<point x="374" y="144"/>
			<point x="344" y="128"/>
			<point x="305" y="128" type="curve" smooth="yes"/>
			<point x="258" y="128"/>
			<point x="218" y="160"/>
			<point x="218" y="226" type="curve" smooth="yes"/>
			<point x="218" y="322"/>
			<point x="283" y="392"/>
			<point x="368" y="392" type="curve" smooth="yes"/>
			<point x="476" y="392" type="line"/>
			<point x="476" y="532" type="line"/>
			<point x="24" y="532" type="line"/>
			<point x="24" y="398" type="line"/>
			<point x="166" y="398" type="line"/>
			<point x="166" y="394" type="line"/>
			<point x="100" y="350"/>
			<point x="44" y="288"/>
			<point x="44" y="188" type="curve" smooth="yes"/>
			<point x="44" y="52"/>
			<point x="156" y="-12"/>
		</contour>
	</outline>
	<anchor name="aboveUC" x="260" y="562"/>
	<anchor name="belowLC" x="270" y="-22"/>
</glyph>
<glyph name="Ubar.sc" format="2">
	<advance width="656"/>
	<outline>
		<contour>
			<point x="18" y="254" type="line"/>
			<point x="638" y="254" type="line"/>
			<point x="638" y="366" type="line"/>
			<point x="94" y="366" type="line"/>
			<point x="18" y="360" type="line"/>
		</contour>
		<component base="U.sc" xOffset="20"/>
	</outline>
	<anchor name="aboveUC" x="330" y="562"/>
	<anchor name="belowLC" x="330" y="-22"/>
</glyph>
<glyph name="X.sc" format="2">
	<advance width="530"/>
	<outline>
		<contour>
			<point x="10" y="0" type="line"/>
			<point x="192" y="0" type="line"/>
			<point x="222" y="76" type="line" smooth="yes"/>
			<point x="233" y="105"/>
			<point x="244" y="134"/>
			<point x="255" y="167" type="curve"/>
			<point x="259" y="167" type="line"/>
			<point x="271" y="134"/>
			<point x="284" y="105"/>
			<point x="297" y="76" type="curve" smooth="yes"/>
			<point x="331" y="0" type="line"/>
			<point x="520" y="0" type="line"/>
			<point x="371" y="266" type="line"/>
			<point x="512" y="532" type="line"/>
			<point x="330" y="532" type="line"/>
			<point x="309" y="464" type="line" smooth="yes"/>
			<point x="301" y="439"/>
			<point x="288" y="408"/>
			<point x="276" y="372" type="curve"/>
			<point x="272" y="372" type="line"/>
			<point x="258" y="408"/>
			<point x="244" y="439"/>
			<point x="234" y="464" type="curve" smooth="yes"/>
			<point x="207" y="532" type="line"/>
			<point x="18" y="532" type="line"/>
			<point x="158" y="273" type="line"/>
		</contour>
	</outline>
	<anchor name="aboveUC" x="266" y="562"/>
	<anchor name="belowLC" x="272" y="-22"/>
</glyph>
<glyph name="X.sups" format="2">
	<advance width="401"/>
	<outline>
		<contour>
			<point x="7" y="368" type="line"/>
			<point x="135" y="368" type="line"/>
			<point x="165" y="443" type="line" smooth="yes"/>
			<point x="174" y="466"/>
			<point x="185" y="488"/>
			<point x="195" y="515" type="curve"/>
			<point x="197" y="515" type="line"/>
			<point x="208" y="488"/>
			<point x="218" y="466"/>
			<point x="228" y="443" type="curve" smooth="yes"/>
			<point x="260" y="368" type="line"/>
			<point x="394" y="368" type="line"/>
			<point x="277" y="585" type="line"/>
			<point x="388" y="800" type="line"/>
			<point x="259" y="800" type="line"/>
			<point x="236" y="734" type="line" smooth="yes"/>
			<point x="229" y="714"/>
			<point x="220" y="690"/>
			<point x="210" y="660" type="curve"/>
			<point x="207" y="660" type="line"/>
			<point x="195" y="690"/>
			<point x="183" y="714"/>
			<point x="175" y="734" type="curve" smooth="yes"/>
			<point x="148" y="800" type="line"/>
			<point x="14" y="800" type="line"/>
			<point x="126" y="590" type="line"/>
		</contour>
	</outline>
</glyph>
<glyph name="Xi.sc" format="2">
	<advance width="529"/>
	<outline>
		<contour>
			<point x="54" y="0" type="line"/>
			<point x="476" y="0" type="line"/>
			<point x="476" y="132" type="line"/>
			<point x="54" y="132" type="line"/>
		</contour>
		<contour>
			<point x="109" y="206" type="line"/>
			<point x="421" y="206" type="line"/>
			<point x="421" y="330" type="line"/>
			<point x="109" y="330" type="line"/>
		</contour>
		<contour>
			<point x="63" y="400" type="line"/>
			<point x="467" y="400" type="line"/>
			<point x="467" y="532" type="line"/>
			<point x="63" y="532" type="line"/>
		</contour>
	</outline>
</glyph>
<glyph name="Yogh.sc" format="2">
	<advance width="466"/>
	<outline>
		<contour>
			<point x="100" y="-176" type="line"/>
			<point x="339" y="-95"/>
			<point x="436" y="-18"/>
			<point x="436" y="128" type="curve" smooth="yes"/>
			<point x="436" y="216"/>
			<point x="374" y="258"/>
			<point x="304" y="266" type="curve"/>
			<point x="376" y="312"/>
			<point x="402" y="356"/>
			<point x="402" y="418" type="curve" smooth="yes"/>
			<point x="402" y="490"/>
			<point x="337" y="544"/>
			<point x="234" y="544" type="curve" smooth="yes"/>
			<point x="151" y="544"/>
			<point x="87" y="521"/>
			<point x="10" y="454" type="curve"/>
			<point x="92" y="356" type="line"/>
			<point x="135" y="391"/>
			<point x="163" y="404"/>
			<point x="198" y="404" type="curve" smooth="yes"/>
			<point x="224" y="404"/>
			<point x="240" y="388"/>
			<point x="240" y="362" type="curve" smooth="yes"/>
			<point x="240" y="320"/>
			<point x="220" y="288"/>
			<point x="80" y="216" type="curve"/>
			<point x="130" y="120" type="line"/>
			<point x="180" y="144"/>
			<point x="198" y="148"/>
			<point x="232" y="148" type="curve" smooth="yes"/>
			<point x="254" y="148"/>
			<point x="274" y="130"/>
			<point x="274" y="102" type="curve" smooth="yes"/>
			<point x="274" y="54"/>
			<point x="217" y="5"/>
			<point x="36" y="-62" type="curve"/>
		</contour>
	</outline>
	<anchor name="aboveUC" x="230" y="562"/>
	<anchor name="belowLC" x="260" y="-182"/>
</glyph>
<glyph name="aet" format="2">
	<advance width="1000"/>
	<outline>
		<contour>
			<point x="188" y="-12" type="curve" smooth="yes"/>
			<point x="255" y="-12"/>
			<point x="304" y="5"/>
			<point x="376" y="60" type="curve"/>
			<point x="320" y="150" type="line"/>
			<point x="300" y="132"/>
			<point x="277" y="120"/>
			<point x="248" y="120" type="curve" smooth="yes"/>
			<point x="218" y="120"/>
			<point x="202" y="133"/>
			<point x="202" y="156" type="curve" smooth="yes"/>
			<point x="202" y="185"/>
			<point x="231" y="210"/>
			<point x="306" y="222" type="curve"/>
			<point x="402" y="448" type="line"/>
			<point x="370" y="488"/>
			<point x="322" y="512"/>
			<point x="264" y="512" type="curve" smooth="yes"/>
			<point x="192" y="512"/>
			<point x="124" y="488"/>
			<point x="54" y="446" type="curve"/>
			<point x="114" y="336" type="line"/>
			<point x="166" y="364"/>
			<point x="204" y="376"/>
			<point x="240" y="376" type="curve" smooth="yes"/>
			<point x="285" y="376"/>
			<point x="304" y="359"/>
			<point x="308" y="324" type="curve"/>
			<point x="118" y="304"/>
			<point x="38" y="246"/>
			<point x="38" y="142" type="curve" smooth="yes"/>
			<point x="38" y="60"/>
			<point x="94" y="-12"/>
		</contour>
		<component base="et" xOffset="260"/>
	</outline>
</glyph>
<glyph name="asperacutecmb" format="2">
	<outline>
		<contour>
			<point x="-48" y="564" type="curve"/>
			<point x="-36" y="630" type="line"/>
			<point x="-55" y="636"/>
			<point x="-66" y="646"/>
			<point x="-66" y="668" type="curve" smooth="yes"/>
			<point x="-66" y="690"/>
			<point x="-48" y="708"/>
			<point x="2" y="712" type="curve"/>
			<point x="-6" y="806" type="line"/>
			<point x="-126" y="802"/>
			<point x="-188" y="758"/>
			<point x="-188" y="686" type="curve" smooth="yes"/>
			<point x="-188" y="606"/>
			<point x="-110" y="572"/>
		</contour>
		<contour>
			<point x="30" y="572" type="line"/>
			<point x="120" y="572" type="line"/>
			<point x="200" y="776" type="line"/>
			<point x="190" y="794" type="line"/>
			<point x="50" y="794" type="line"/>
		</contour>
	</outline>
	<anchor name="_aboveLC" x="0" y="522"/>
</glyph>
<glyph name="brevegrave.cap" format="2">
	<outline>
		<contour>
			<point x="0" y="696" type="curve" smooth="yes"/>
			<point x="102" y="696"/>
			<point x="160" y="738"/>
			<point x="170" y="834" type="curve"/>
			<point x="88" y="850" type="line"/>
			<point x="77" y="804"/>
			<point x="45" y="782"/>
			<point x="0" y="782" type="curve" smooth="yes"/>
			<point x="-45" y="782"/>
			<point x="-77" y="804"/>
			<point x="-88" y="850" type="curve"/>
			<point x="-170" y="834" type="line"/>
			<point x="-160" y="738"/>
			<point x="-102" y="696"/>
		</contour>
		<contour>
			<point x="-30" y="846" type="line"/>
			<point x="60" y="846" type="line"/>
			<point x="0" y="980" type="line"/>
			<point x="-130" y="980" type="line"/>
			<point x="-140" y="962" type="line"/>
		</contour>
	</outline>
	<anchor name="_aboveUC" x="0" y="672"/>
</glyph>
<glyph name="circumflexbreve.cap" format="2">
	<outline>
		<contour>
			<point x="-200" y="700" type="line"/>
			<point x="-80" y="700" type="line"/>
			<point x="-2" y="750" type="line"/>
			<point x="2" y="750" type="line"/>
			<point x="80" y="700" type="line"/>
			<point x="200" y="700" type="line"/>
			<point x="80" y="830" type="line"/>
			<point x="-80" y="830" type="line"/>
		</contour>
		<contour>
			<point x="0" y="848" type="curve" smooth="yes"/>
			<point x="102" y="848"/>
			<point x="156" y="894"/>
			<point x="166" y="966" type="curve"/>
			<point x="82" y="982" type="line"/>
			<point x="73" y="956"/>
			<point x="42" y="934"/>
			<point x="0" y="934" type="curve" smooth="yes"/>
			<point x="-42" y="934"/>
			<point x="-73" y="956"/>
			<point x="-82" y="982" type="curve"/>
			<point x="-166" y="966" type="line"/>
			<point x="-156" y="894"/>
			<point x="-102" y="848"/>
		</contour>
	</outline>
	<anchor name="_aboveUC" x="0" y="672"/>
</glyph>
<glyph name="circumflexhoi" format="2">
	<outline>
		<contour>
			<point x="-190" y="570" type="line"/>
			<point x="-70" y="570" type="line"/>
			<point x="-2" y="646" type="line"/>
			<point x="2" y="646" type="line"/>
			<point x="70" y="570" type="line"/>
			<point x="190" y="570" type="line"/>
			<point x="80" y="740" type="line"/>
			<point x="-80" y="740" type="line"/>
		</contour>
		<contour>
			<point x="162" y="652" type="line"/>
			<point x="232" y="660"/>
			<point x="288" y="680"/>
			<point x="288" y="750" type="curve" smooth="yes"/>
			<point x="288" y="808"/>
			<point x="252" y="848"/>
			<point x="130" y="852" type="curve"/>
			<point x="114" y="762" type="line"/>
			<point x="166" y="758"/>
			<point x="178" y="748"/>
			<point x="178" y="732" type="curve" smooth="yes"/>
			<point x="178" y="716"/>
			<point x="168" y="710"/>
			<point x="152" y="708" type="curve"/>
		</contour>
	</outline>
	<anchor name="_aboveLC" x="0" y="522"/>
</glyph>
<glyph name="circumflextilde" format="2">
	<outline>
		<contour>
			<point x="-190" y="570" type="line"/>
			<point x="-70" y="570" type="line"/>
			<point x="-2" y="626" type="line"/>
			<point x="2" y="626" type="line"/>
			<point x="70" y="570" type="line"/>
			<point x="190" y="570" type="line"/>
			<point x="80" y="720" type="line"/>
			<point x="-80" y="720" type="line"/>
		</contour>
		<contour>
			<point x="66" y="750" type="curve" smooth="yes"/>
			<point x="124" y="750"/>
			<point x="164" y="784"/>
			<point x="172" y="870" type="curve"/>
			<point x="86" y="878" type="line"/>
			<point x="80" y="852"/>
			<point x="70" y="842"/>
			<point x="56" y="842" type="curve" smooth="yes"/>
			<point x="24" y="842"/>
			<point x="0" y="884"/>
			<point x="-66" y="884" type="curve" smooth="yes"/>
			<point x="-124" y="884"/>
			<point x="-164" y="850"/>
			<point x="-172" y="764" type="curve"/>
			<point x="-86" y="756" type="line"/>
			<point x="-80" y="782"/>
			<point x="-70" y="792"/>
			<point x="-56" y="792" type="curve" smooth="yes"/>
			<point x="-24" y="792"/>
			<point x="0" y="750"/>
		</contour>
	</outline>
	<anchor name="_aboveLC" x="0" y="522"/>
</glyph>
<glyph name="dieresiscmb.cap" format="2">
	<outline>
		<contour>
			<point x="-114" y="694" type="curve" smooth="yes"/>
			<point x="-68" y="694"/>
			<point x="-36" y="728"/>
			<point x="-36" y="772" type="curve" smooth="yes"/>
			<point x="-36" y="816"/>
			<point x="-68" y="850"/>
			<point x="-114" y="850" type="curve" smooth="yes"/>
			<point x="-160" y="850"/>
			<point x="-192" y="816"/>
			<point x="-192" y="772" type="curve" smooth="yes"/>
			<point x="-192" y="728"/>
			<point x="-160" y="694"/>
		</contour>
		<contour>
			<point x="114" y="694" type="curve" smooth="yes"/>
			<point x="160" y="694"/>
			<point x="192" y="728"/>
			<point x="192" y="772" type="curve" smooth="yes"/>
			<point x="192" y="816"/>
			<point x="160" y="850"/>
			<point x="114" y="850" type="curve" smooth="yes"/>
			<point x="68" y="850"/>
			<point x="36" y="816"/>
			<point x="36" y="772" type="curve" smooth="yes"/>
			<point x="36" y="728"/>
			<point x="68" y="694"/>
		</contour>
	</outline>
	<anchor name="_aboveUC" x="0" y="672"/>
</glyph>
<glyph name="f_f_t" format="2">
	<advance width="1052"/>
	<outline>
		<contour>
			<point x="88" y="0" type="line"/>
			<point x="260" y="0" type="line"/>
			<point x="260" y="508" type="line" smooth="yes"/>
			<point x="260" y="548"/>
			<point x="284" y="564"/>
			<point x="312" y="564" type="curve" smooth="yes"/>
			<point x="340" y="564"/>
			<point x="354" y="560"/>
			<point x="368" y="554" type="curve"/>
			<point x="398" y="680" type="line"/>
			<point x="376" y="689"/>
			<point x="336" y="698"/>
			<point x="290" y="698" type="curve" smooth="yes"/>
			<point x="142" y="698"/>
			<point x="88" y="608"/>
			<point x="88" y="506" type="curve" smooth="yes"/>
		</contour>
		<contour>
			<point x="416" y="0" type="line"/>
			<point x="588" y="0" type="line"/>
			<point x="588" y="512" type="line" smooth="yes"/>
			<point x="588" y="559"/>
			<point x="608" y="574"/>
			<point x="640" y="574" type="curve" smooth="yes"/>
			<point x="656" y="574"/>
			<point x="674" y="570"/>
			<point x="690" y="564" type="curve"/>
			<point x="720" y="690" type="line"/>
			<point x="698" y="698"/>
			<point x="660" y="708"/>
			<point x="614" y="708" type="curve" smooth="yes"/>
			<point x="466" y="708"/>
			<point x="416" y="613"/>
			<point x="416" y="506" type="curve" smooth="yes"/>
		</contour>
		<contour>
			<point x="916" y="-12" type="curve" smooth="yes"/>
			<point x="971" y="-12"/>
			<point x="1008" y="-2"/>
			<point x="1034" y="6" type="curve"/>
			<point x="1008" y="130" type="line"/>
			<point x="996" y="126"/>
			<point x="980" y="122"/>
			<point x="964" y="122" type="curve" smooth="yes"/>
			<point x="932" y="122"/>
			<point x="904" y="140"/>
			<point x="904" y="195" type="curve" smooth="yes"/>
			<point x="904" y="366" type="line"/>
			<point x="1018" y="366" type="line"/>
			<point x="1018" y="500" type="line"/>
			<point x="904" y="500" type="line"/>
			<point x="904" y="630" type="line"/>
			<point x="762" y="630" type="line"/>
			<point x="742" y="500" type="line"/>
			<point x="90" y="500" type="line"/>
			<point x="14" y="494" type="line"/>
			<point x="14" y="366" type="line"/>
			<point x="732" y="366" type="line"/>
			<point x="732" y="192" type="line" smooth="yes"/>
			<point x="732" y="70"/>
			<point x="786" y="-12"/>
		</contour>
	</outline>
</glyph>
<glyph name="five.tnum" format="2">
	<advance width="540"/>
	<outline>
		<contour>
			<point x="252" y="-92" type="curve" smooth="yes"/>
			<point x="381" y="-92"/>
			<point x="492" y="-8"/>
			<point x="492" y="140" type="curve" smooth="yes"/>
			<point x="492" y="276"/>
			<point x="398" y="342"/>
			<point x="288" y="342" type="curve" smooth="yes"/>
			<point x="267" y="342"/>
			<point x="250" y="340"/>
			<point x="228" y="332" type="curve"/>
			<point x="236" y="436" type="line"/>
			<point x="464" y="436" type="line"/>
			<point x="464" y="580" type="line"/>
			<point x="88" y="580" type="line"/>
			<point x="72" y="242" type="line"/>
			<point x="146" y="194" type="line"/>
			<point x="184" y="218"/>
			<point x="200" y="224"/>
			<point x="234" y="224" type="curve" smooth="yes"/>
			<point x="284" y="224"/>
			<point x="320" y="192"/>
			<point x="320" y="136" type="curve" smooth="yes"/>
			<point x="320" y="76"/>
			<point x="286" y="46"/>
			<point x="226" y="46" type="curve" smooth="yes"/>
			<point x="180" y="46"/>
			<point x="136" y="72"/>
			<point x="98" y="106" type="curve"/>
			<point x="22" y="0" type="line"/>
			<point x="74" y="-52"/>
			<point x="148" y="-92"/>
		</contour>
	</outline>
</glyph>
<glyph name="interrobang.sc" format="2">
	<advance width="478"/>
	<outline>
		<contour>
			<point x="182" y="244" type="line"/>
			<point x="296" y="244" type="line"/>
			<point x="296" y="303"/>
			<point x="438" y="320"/>
			<point x="438" y="434" type="curve" smooth="yes"/>
			<point x="438" y="516"/>
			<point x="360" y="564"/>
			<point x="240" y="564" type="curve" smooth="yes"/>
			<point x="152" y="564"/>
			<point x="92" y="530"/>
			<point x="42" y="484" type="curve"/>
			<point x="114" y="398" type="line"/>
			<point x="154" y="432"/>
			<point x="188" y="446"/>
			<point x="228" y="446" type="curve" smooth="yes"/>
			<point x="264" y="446"/>
			<point x="294" y="432"/>
			<point x="294" y="402" type="curve" smooth="yes"/>
			<point x="294" y="372"/>
			<point x="276" y="368"/>
			<point x="242" y="324" type="curve"/>
			<point x="256" y="318" type="line"/>
			<point x="268" y="364" type="line"/>
			<point x="272" y="406" type="line"/>
			<point x="152" y="406" type="line"/>
			<point x="164" y="328" type="line"/>
		</contour>
		<contour>
			<point x="236" y="-12" type="curve" smooth="yes"/>
			<point x="294" y="-12"/>
			<point x="336" y="34"/>
			<point x="336" y="92" type="curve" smooth="yes"/>
			<point x="336" y="150"/>
			<point x="294" y="196"/>
			<point x="236" y="196" type="curve" smooth="yes"/>
			<point x="178" y="196"/>
			<point x="136" y="150"/>
			<point x="136" y="92" type="curve" smooth="yes"/>
			<point x="136" y="34"/>
			<point x="178" y="-12"/>
		</contour>
	</outline>
</glyph>
<glyph name="lslash.a" format="2">
	<advance width="382"/>
	<outline>
		<contour>
			<point x="40" y="254" type="line"/>
			<point x="106" y="282" type="line"/>
			<point x="252" y="350" type="line"/>
			<point x="398" y="412" type="line"/>
			<point x="342" y="518" type="line"/>
			<point x="252" y="480" type="line"/>
			<point x="106" y="412" type="line"/>
			<point x="-16" y="360" type="line"/>
		</contour>
		<component base="l.a" xOffset="40"/>
	</outline>
	<anchor name="aboveUC" x="190" y="722"/>
	<anchor name="belowLC" x="190" y="-22"/>
</glyph>
<glyph name="parenleft.dnom" format="2">
	<advance width="280"/>
	<outline>
		<contour>
			<point x="154" y="-94" type="curve"/>
			<point x="246" y="-58" type="line"/>
			<point x="204" y="24"/>
			<point x="180" y="106"/>
			<point x="180" y="196" type="curve" smooth="yes"/>
			<point x="180" y="286"/>
			<point x="204" y="368"/>
			<point x="246" y="450" type="curve"/>
			<point x="154" y="486" type="line"/>
			<point x="96" y="396"/>
			<point x="62" y="318"/>
			<point x="62" y="196" type="curve" smooth="yes"/>
			<point x="62" y="74"/>
			<point x="96" y="-4"/>
		</contour>
	</outline>
</glyph>
<glyph name="parenright.sc" format="2">
	<advance width="360"/>
	<outline>
		<contour>
			<point x="160" y="-130" type="line"/>
			<point x="244" y="-13"/>
			<point x="292" y="110"/>
			<point x="292" y="258" type="curve" smooth="yes"/>
			<point x="292" y="406"/>
			<point x="244" y="529"/>
			<point x="160" y="646" type="curve"/>
			<point x="52" y="602" type="line"/>
			<point x="124" y="493"/>
			<point x="154" y="375"/>
			<point x="154" y="258" type="curve" smooth="yes"/>
			<point x="154" y="141"/>
			<point x="124" y="23"/>
			<point x="52" y="-86" type="curve"/>
		</contour>
	</outline>
</glyph>
<glyph name="ringhalfrightabovecmb.cap" format="2">
	<outline>
		<contour>
			<point x="-70" y="696" type="line"/>
			<point x="62" y="690"/>
			<point x="106" y="736"/>
			<point x="106" y="798" type="curve" smooth="yes"/>
			<point x="106" y="860"/>
			<point x="62" y="906"/>
			<point x="-70" y="900" type="curve"/>
			<point x="-70" y="838" type="line"/>
			<point x="-24" y="840"/>
			<point x="-6" y="822"/>
			<point x="-6" y="798" type="curve" smooth="yes"/>
			<point x="-6" y="774"/>
			<point x="-24" y="756"/>
			<point x="-70" y="758" type="curve"/>
		</contour>
	</outline>
	<anchor name="_aboveUC" x="0" y="672"/>
</glyph>
<glyph name="seven.tnum" format="2">
	<advance width="540"/>
	<outline>
		<contour>
			<point x="152" y="-80" type="curve"/>
			<point x="324" y="-80" type="line"/>
			<point x="336" y="172"/>
			<point x="352" y="300"/>
			<point x="498" y="474" type="curve"/>
			<point x="498" y="580" type="line"/>
			<point x="44" y="580" type="line"/>
			<point x="44" y="436" type="line"/>
			<point x="316" y="436" type="line"/>
			<point x="198" y="270"/>
			<point x="164" y="124"/>
		</contour>
	</outline>
</glyph>
<glyph name="three.sc" format="2">
	<advance width="509"/>
	<outline>
		<contour>
			<point x="229" y="-12" type="curve" smooth="yes"/>
			<point x="354" y="-12"/>
			<point x="461" y="43"/>
			<point x="461" y="146" type="curve" smooth="yes"/>
			<point x="461" y="212"/>
			<point x="416" y="253"/>
			<point x="351" y="272" type="curve"/>
			<point x="351" y="275" type="line"/>
			<point x="413" y="302"/>
			<point x="443" y="340"/>
			<point x="443" y="387" type="curve" smooth="yes"/>
			<point x="443" y="488"/>
			<point x="359" y="544"/>
			<point x="226" y="544" type="curve" smooth="yes"/>
			<point x="157" y="544"/>
			<point x="93" y="519"/>
			<point x="36" y="473" type="curve"/>
			<point x="119" y="371" type="line"/>
			<point x="156" y="400"/>
			<point x="186" y="415"/>
			<point x="221" y="415" type="curve" smooth="yes"/>
			<point x="258" y="415"/>
			<point x="274" y="401"/>
			<point x="274" y="375" type="curve" smooth="yes"/>
			<point x="274" y="343"/>
			<point x="245" y="326"/>
			<point x="153" y="326" type="curve"/>
			<point x="153" y="210" type="line"/>
			<point x="272" y="210"/>
			<point x="291" y="192"/>
			<point x="291" y="159" type="curve" smooth="yes"/>
			<point x="291" y="133"/>
			<point x="263" y="119"/>
			<point x="226" y="119" type="curve" smooth="yes"/>
			<point x="177" y="119"/>
			<point x="133" y="140"/>
			<point x="98" y="169" type="curve"/>
			<point x="22" y="64" type="line"/>
			<point x="66" y="14"/>
			<point x="147" y="-12"/>
		</contour>
	</outline>
</glyph>
<glyph name="tonoscmb" format="2">
	<outline>
		<contour>
			<point x="-70" y="570" type="line"/>
			<point x="50" y="570" type="line"/>
			<point x="140" y="772" type="line"/>
			<point x="130" y="790" type="line"/>
			<point x="-40" y="790" type="line"/>
		</contour>
	</outline>
	<anchor name="_aboveLC" x="0" y="522"/>
</glyph>
<glyph name="uogonek.d" format="2">
	<advance width="578"/>
	<outline>
		<contour>
			<point x="274" y="-220" type="curve" smooth="yes"/>
			<point x="312" y="-220"/>
			<point x="360" y="-206"/>
			<point x="390" y="-184" type="curve"/>
			<point x="356" y="-96" type="line"/>
			<point x="344" y="-102"/>
			<point x="328" y="-108"/>
			<point x="310" y="-108" type="curve" smooth="yes"/>
			<point x="292" y="-108"/>
			<point x="272" y="-98"/>
			<point x="272" y="-74" type="curve" smooth="yes"/>
			<point x="272" y="-56"/>
			<point x="278" y="-36"/>
			<point x="293" y="-13" type="curve" smooth="yes"/>
			<point x="307" y="10"/>
			<point x="330" y="34"/>
			<point x="364" y="62" type="curve"/>
			<point x="368" y="62" type="line"/>
			<point x="380" y="0" type="line"/>
			<point x="520" y="0" type="line"/>
			<point x="520" y="500" type="line"/>
			<point x="348" y="500" type="line"/>
			<point x="348" y="178" type="line"/>
			<point x="326" y="146"/>
			<point x="308" y="134"/>
			<point x="276" y="134" type="curve" smooth="yes"/>
			<point x="242" y="134"/>
			<point x="226" y="150"/>
			<point x="226" y="214" type="curve" smooth="yes"/>
			<point x="226" y="500" type="line"/>
			<point x="54" y="500" type="line"/>
			<point x="54" y="192" type="line" smooth="yes"/>
			<point x="54" y="68"/>
			<point x="100" y="-12"/>
			<point x="210" y="-12" type="curve" smooth="yes"/>
			<point x="216" y="-12"/>
			<point x="233" y="-12"/>
			<point x="241" y="-12" type="curve"/>
			<point x="226" y="2" type="line"/>
			<point x="200" y="-16"/>
			<point x="148" y="-58"/>
			<point x="148" y="-116" type="curve" smooth="yes"/>
			<point x="148" y="-188"/>
			<point x="204" y="-220"/>
		</contour>
	</outline>
	<anchor name="aboveLC" x="278" y="502"/>
</glyph>
<glyph name="zero.sc" format="2">
	<advance width="568"/>
	<outline>
		<contour>
			<point x="284" y="-12" type="curve" smooth="yes"/>
			<point x="416" y="-12"/>
			<point x="516" y="94"/>
			<point x="516" y="270" type="curve" smooth="yes"/>
			<point x="516" y="444"/>
			<point x="416" y="545"/>
			<point x="284" y="545" type="curve" smooth="yes"/>
			<point x="152" y="545"/>
			<point x="52" y="445"/>
			<point x="52" y="270" type="curve" smooth="yes"/>
			<point x="52" y="94"/>
			<point x="152" y="-12"/>
		</contour>
		<contour>
			<point x="284" y="120" type="curve" smooth="yes"/>
			<point x="252" y="120"/>
			<point x="222" y="149"/>
			<point x="222" y="270" type="curve" smooth="yes"/>
			<point x="222" y="391"/>
			<point x="252" y="413"/>
			<point x="284" y="413" type="curve" smooth="yes"/>
			<point x="316" y="413"/>
			<point x="346" y="391"/>
			<point x="346" y="270" type="curve" smooth="yes"/>
			<point x="346" y="149"/>
			<point x="316" y="120"/>
		</contour>
	</outline>
</glyph>
<glyph name="zhedescender.a" format="2">
	<advance width="836"/>
	<outline>
		<contour>
			<point x="666" y="-172" type="line"/>
			<point x="812" y="-172" type="line"/>
			<point x="828" y="20" type="line"/>
			<point x="828" y="134" type="line"/>
			<point x="636" y="134" type="line"/>
			<point x="636" y="0" type="line"/>
			<point x="666" y="0" type="line"/>
		</contour>
		<component base="zhe.a"/>
	</outline>
</glyph>
